<svg width="548" height="465" viewBox="0 0 548 465" fill="none" xmlns="http://www.w3.org/2000/svg">
<path d="M49.6456 228.105C51.6706 228.105 53.1556 229.335 53.1556 231.12C53.1556 232.89 51.6706 234.12 49.6456 234.12C47.6356 234.12 46.1506 232.89 46.1506 231.12C46.1506 229.335 47.6356 228.105 49.6456 228.105ZM49.6456 229.125C48.3406 229.125 47.3506 229.95 47.3506 231.12C47.3506 232.29 48.3406 233.1 49.6456 233.1C50.9656 233.1 51.9406 232.29 51.9406 231.12C51.9406 229.95 50.9656 229.125 49.6456 229.125ZM55.7056 227.61H56.9656V234.555H55.7056V227.61ZM48.1906 235.215H56.9656V238.515H49.4356V240.555H48.2206V237.585H55.7356V236.22H48.1906V235.215ZM48.2206 240H57.4156V240.99H48.2206V240Z" fill="#A6A3A3"/>
<g filter="url(#filter0_d_775_88)">
<rect x="4" width="540" height="457" rx="23" fill="white"/>
</g>
<g filter="url(#filter1_d_775_88)">
<rect x="4" width="540" height="457" rx="23" fill="white"/>
</g>
<rect x="32" y="31" width="176" height="79" rx="31" fill="#FFC9B0" fill-opacity="0.27"/>
<rect x="229" y="50" width="271" height="16" rx="8" fill="#D9D9D9" fill-opacity="0.58"/>
<rect x="229" y="76" width="157" height="17" rx="8.5" fill="#D9D9D9" fill-opacity="0.58"/>
<rect x="229" y="144" width="271" height="17" rx="8.5" fill="#D9D9D9" fill-opacity="0.58"/>
<rect x="229" y="171" width="157" height="17" rx="8.5" fill="#D9D9D9" fill-opacity="0.58"/>
<rect x="32" y="127" width="176" height="79" rx="31" fill="#FFC9B0" fill-opacity="0.27"/>
<path d="M57.1456 242.105C59.1706 242.105 60.6556 243.335 60.6556 245.12C60.6556 246.89 59.1706 248.12 57.1456 248.12C55.1356 248.12 53.6506 246.89 53.6506 245.12C53.6506 243.335 55.1356 242.105 57.1456 242.105ZM57.1456 243.125C55.8406 243.125 54.8506 243.95 54.8506 245.12C54.8506 246.29 55.8406 247.1 57.1456 247.1C58.4656 247.1 59.4406 246.29 59.4406 245.12C59.4406 243.95 58.4656 243.125 57.1456 243.125ZM63.2056 241.61H64.4656V248.555H63.2056V241.61ZM55.6906 249.215H64.4656V252.515H56.9356V254.555H55.7206V251.585H63.2356V250.22H55.6906V249.215ZM55.7206 254H64.9156V254.99H55.7206V254Z" fill="#A6A3A3"/>
<path d="M128.981 247.22H130.226V249.635H128.981V247.22ZM135.206 241.61H136.451V249.59H135.206V241.61ZM125.456 247.64L125.306 246.71C127.916 246.71 131.231 246.695 134.126 246.365L134.201 247.175C131.231 247.61 127.991 247.64 125.456 247.64ZM127.361 250.085H136.451V252.905H128.606V254.435H127.391V252.08H135.221V250.985H127.361V250.085ZM127.391 254.12H136.901V255.02H127.391V254.12ZM132.506 248.06H135.596V248.87H132.506V248.06ZM129.686 241.865C131.696 241.865 133.016 242.645 133.016 243.905C133.016 245.165 131.696 245.945 129.686 245.945C127.661 245.945 126.341 245.165 126.341 243.905C126.341 242.645 127.661 241.865 129.686 241.865ZM129.686 242.735C128.351 242.735 127.496 243.185 127.496 243.905C127.496 244.625 128.351 245.075 129.686 245.075C130.991 245.075 131.846 244.625 131.846 243.905C131.846 243.185 130.991 242.735 129.686 242.735Z" fill="#A6A3A3"/>
<path d="M200.861 249.695H202.106V251.9H200.861V249.695ZM206.561 241.61H207.806V255.17H206.561V241.61ZM207.401 247.37H209.906V248.42H207.401V247.37ZM197.366 252.59L197.186 251.555C199.616 251.555 202.931 251.525 205.736 251.12L205.841 252.05C202.916 252.575 199.736 252.59 197.366 252.59ZM197.411 243.245H205.526V244.25H197.411V243.245ZM201.476 245.045C203.366 245.045 204.671 246.035 204.671 247.55C204.671 249.08 203.366 250.055 201.476 250.055C199.586 250.055 198.296 249.08 198.296 247.55C198.296 246.035 199.586 245.045 201.476 245.045ZM201.476 246.005C200.261 246.005 199.466 246.62 199.466 247.55C199.466 248.48 200.261 249.095 201.476 249.095C202.691 249.095 203.501 248.48 203.501 247.55C203.501 246.62 202.691 246.005 201.476 246.005ZM200.861 241.625H202.106V243.92H200.861V241.625Z" fill="#A6A3A3"/>
<path d="M275.826 242.09H276.921V242.84C276.921 245.435 274.281 247.295 271.461 247.775L270.966 246.77C273.441 246.395 275.826 244.775 275.826 242.84V242.09ZM276.051 242.09H277.131V242.84C277.131 244.73 279.546 246.395 281.991 246.77L281.496 247.775C278.706 247.295 276.051 245.405 276.051 242.84V242.09ZM275.826 250.01H277.056V255.17H275.826V250.01ZM270.351 249.245H282.606V250.28H270.351V249.245Z" fill="#A6A3A3"/>
<path d="M343.911 242.165H353.031V246.785H343.911V242.165ZM351.801 243.17H345.126V245.78H351.801V243.17ZM342.336 248.48H354.591V249.485H342.336V248.48ZM347.856 246.515H349.086V248.855H347.856V246.515ZM343.701 250.88H353.076V255.17H351.831V251.9H343.701V250.88Z" fill="#A6A3A3"/>
<path d="M416.411 242.315H425.141V243.335H416.411V242.315ZM414.851 247.31H427.136V248.33H414.851V247.31ZM424.331 242.315H425.546V243.32C425.546 244.475 425.546 245.795 425.096 247.67L423.881 247.61C424.331 245.75 424.331 244.445 424.331 243.32V242.315ZM416.351 250.175H425.591V254.99H416.351V250.175ZM424.376 251.165H417.566V253.985H424.376V251.165Z" fill="#A6A3A3"/>
<path d="M488.926 248.645H498.241V249.65H488.926V248.645ZM487.351 252.455H499.636V253.49H487.351V252.455ZM492.856 249.17H494.086V252.935H492.856V249.17ZM488.926 242.705H498.091V243.725H490.186V249.02H488.926V242.705ZM489.781 245.615H497.806V246.62H489.781V245.615Z" fill="#A6A3A3"/>
<path d="M411.861 291V289.2H415.086L415.061 275.5H417.061V289.2H419.861V291H411.861ZM411.636 278.5L411.186 276.75L415.061 275.5V277.5L411.636 278.5ZM432.525 275.5V277.3H426.525L426.325 281.975H428.075C429.825 281.975 431.117 282.4 431.95 283.25C432.8 284.1 433.225 285.2 433.225 286.55C433.225 287.9 432.725 289.05 431.725 290C430.742 290.933 429.358 291.4 427.575 291.4C425.808 291.4 424.4 291.042 423.35 290.325L424.175 288.825C424.992 289.358 426.058 289.625 427.375 289.625C428.708 289.625 429.7 289.333 430.35 288.75C431 288.167 431.325 287.467 431.325 286.65C431.325 285.833 431.058 285.15 430.525 284.6C429.992 284.033 429.175 283.75 428.075 283.75H424.4L424.725 275.5H432.525Z" fill="#A6A3A3"/>
<path d="M415.861 355.2C416.611 354.35 417.127 353.642 417.411 353.075C417.711 352.508 417.861 351.9 417.861 351.25C417.861 350.583 417.594 350.025 417.061 349.575C416.544 349.108 415.769 348.875 414.736 348.875C414.169 348.875 413.619 348.95 413.086 349.1C412.319 349.333 411.786 349.575 411.486 349.825L410.686 348.275C411.886 347.492 413.277 347.1 414.861 347.1C416.444 347.1 417.669 347.5 418.536 348.3C419.419 349.1 419.861 350.1 419.861 351.3C419.861 352.75 419.069 354.392 417.486 356.225L413.086 361.2H420.011V363H410.361V361.425L415.861 355.2ZM428.8 355.2C429.55 354.35 430.067 353.642 430.35 353.075C430.65 352.508 430.8 351.9 430.8 351.25C430.8 350.583 430.533 350.025 430 349.575C429.483 349.108 428.708 348.875 427.675 348.875C427.108 348.875 426.558 348.95 426.025 349.1C425.258 349.333 424.725 349.575 424.425 349.825L423.625 348.275C424.825 347.492 426.217 347.1 427.8 347.1C429.383 347.1 430.608 347.5 431.475 348.3C432.358 349.1 432.8 350.1 432.8 351.3C432.8 352.75 432.008 354.392 430.425 356.225L426.025 361.2H432.95V363H423.3V361.425L428.8 355.2Z" fill="#A6A3A3"/>
<path d="M484.361 291V289.2H487.586L487.561 275.5H489.561V289.2H492.361V291H484.361ZM484.136 278.5L483.686 276.75L487.561 275.5V277.5L484.136 278.5ZM505.2 278C504.5 277.25 503.517 276.875 502.25 276.875C500.983 276.875 499.95 277.442 499.15 278.575C498.367 279.692 497.9 281.192 497.75 283.075C498.967 282.058 500.242 281.55 501.575 281.55C502.508 281.55 503.317 281.7 504 282C504.7 282.3 505.217 282.7 505.55 283.2C506.217 284.133 506.55 285.133 506.55 286.2C506.55 287.65 506.108 288.883 505.225 289.9C504.342 290.9 503 291.4 501.2 291.4C499.417 291.4 498.058 290.758 497.125 289.475C496.208 288.175 495.75 286.55 495.75 284.6C495.75 281.767 496.325 279.475 497.475 277.725C498.642 275.975 500.233 275.1 502.25 275.1C503.883 275.1 505.158 275.558 506.075 276.475L505.2 278ZM501.525 283.3C500.042 283.3 498.775 283.958 497.725 285.275C497.942 288.175 499.125 289.625 501.275 289.625C502.342 289.625 503.158 289.308 503.725 288.675C504.308 288.042 504.6 287.283 504.6 286.4C504.6 285.917 504.525 285.467 504.375 285.05C504.242 284.617 503.925 284.217 503.425 283.85C502.942 283.483 502.308 283.3 501.525 283.3Z" fill="#A6A3A3"/>
<path d="M488.361 355.2C489.111 354.35 489.627 353.642 489.911 353.075C490.211 352.508 490.361 351.9 490.361 351.25C490.361 350.583 490.094 350.025 489.561 349.575C489.044 349.108 488.269 348.875 487.236 348.875C486.669 348.875 486.119 348.95 485.586 349.1C484.819 349.333 484.286 349.575 483.986 349.825L483.186 348.275C484.386 347.492 485.777 347.1 487.361 347.1C488.944 347.1 490.169 347.5 491.036 348.3C491.919 349.1 492.361 350.1 492.361 351.3C492.361 352.75 491.569 354.392 489.986 356.225L485.586 361.2H492.511V363H482.861V361.425L488.361 355.2ZM496.475 360.825C497.292 361.358 498.358 361.625 499.675 361.625C501.008 361.625 502 361.333 502.65 360.75C503.3 360.167 503.625 359.492 503.625 358.725C503.625 357.942 503.358 357.292 502.825 356.775C502.292 356.258 501.475 356 500.375 356H498V354.275H498.9C501.117 354.275 502.508 353.6 503.075 352.25C503.208 351.933 503.275 351.617 503.275 351.3C503.275 350.6 503.008 350.025 502.475 349.575C501.958 349.108 501.183 348.875 500.15 348.875C499.583 348.875 499.033 348.95 498.5 349.1C497.733 349.333 497.2 349.575 496.9 349.825L496.1 348.275C497.3 347.492 498.692 347.1 500.275 347.1C501.858 347.1 503.067 347.5 503.9 348.3C504.75 349.1 505.175 350.125 505.175 351.375C505.175 352.892 504.5 354.05 503.15 354.85C504.733 355.567 505.525 356.817 505.525 358.6C505.525 359.917 505.025 361.05 504.025 362C503.042 362.933 501.658 363.4 499.875 363.4C498.108 363.4 496.7 363.042 495.65 362.325L496.475 360.825Z" fill="#A6A3A3"/>
<path d="M266.861 291V289.2H270.086L270.061 275.5H272.061V289.2H274.861V291H266.861ZM266.636 278.5L266.186 276.75L270.061 275.5V277.5L266.636 278.5ZM278.975 288.825C279.792 289.358 280.858 289.625 282.175 289.625C283.508 289.625 284.5 289.333 285.15 288.75C285.8 288.167 286.125 287.492 286.125 286.725C286.125 285.942 285.858 285.292 285.325 284.775C284.792 284.258 283.975 284 282.875 284H280.5V282.275H281.4C283.617 282.275 285.008 281.6 285.575 280.25C285.708 279.933 285.775 279.617 285.775 279.3C285.775 278.6 285.508 278.025 284.975 277.575C284.458 277.108 283.683 276.875 282.65 276.875C282.083 276.875 281.533 276.95 281 277.1C280.233 277.333 279.7 277.575 279.4 277.825L278.6 276.275C279.8 275.492 281.192 275.1 282.775 275.1C284.358 275.1 285.567 275.5 286.4 276.3C287.25 277.1 287.675 278.125 287.675 279.375C287.675 280.892 287 282.05 285.65 282.85C287.233 283.567 288.025 284.817 288.025 286.6C288.025 287.917 287.525 289.05 286.525 290C285.542 290.933 284.158 291.4 282.375 291.4C280.608 291.4 279.2 291.042 278.15 290.325L278.975 288.825Z" fill="#6D5E5E"/>
<path d="M270.861 355.2C271.611 354.35 272.127 353.642 272.411 353.075C272.711 352.508 272.861 351.9 272.861 351.25C272.861 350.583 272.594 350.025 272.061 349.575C271.544 349.108 270.769 348.875 269.736 348.875C269.169 348.875 268.619 348.95 268.086 349.1C267.319 349.333 266.786 349.575 266.486 349.825L265.686 348.275C266.886 347.492 268.277 347.1 269.861 347.1C271.444 347.1 272.669 347.5 273.536 348.3C274.419 349.1 274.861 350.1 274.861 351.3C274.861 352.75 274.069 354.392 272.486 356.225L268.086 361.2H275.011V363H265.361V361.425L270.861 355.2ZM279.15 361.15C278.2 359.633 277.725 357.667 277.725 355.25C277.725 352.833 278.2 350.875 279.15 349.375C280.1 347.858 281.533 347.1 283.45 347.1C285.367 347.1 286.808 347.858 287.775 349.375C288.742 350.892 289.225 352.85 289.225 355.25C289.225 357.65 288.742 359.608 287.775 361.125C286.808 362.642 285.367 363.4 283.45 363.4C281.533 363.4 280.1 362.65 279.15 361.15ZM280.6 350.7C279.983 351.867 279.675 353.383 279.675 355.25C279.675 357.117 279.983 358.642 280.6 359.825C281.233 360.992 282.183 361.575 283.45 361.575C284.717 361.575 285.667 360.983 286.3 359.8C286.95 358.617 287.275 357.1 287.275 355.25C287.275 353.4 286.95 351.883 286.3 350.7C285.667 349.517 284.717 348.925 283.45 348.925C282.183 348.925 281.233 349.517 280.6 350.7Z" fill="#A6A3A3"/>
<path d="M339.361 291V289.2H342.586L342.561 275.5H344.561V289.2H347.361V291H339.361ZM339.136 278.5L338.686 276.75L342.561 275.5V277.5L339.136 278.5ZM357.8 291V287.45H350.325V286.425L354.775 275.5H356.9L352.75 285.65H357.8V279.75H359.75V285.65H361.075V287.45H359.75V291H357.8Z" fill="#A6A3A3"/>
<path d="M343.361 355.2C344.111 354.35 344.627 353.642 344.911 353.075C345.211 352.508 345.361 351.9 345.361 351.25C345.361 350.583 345.094 350.025 344.561 349.575C344.044 349.108 343.269 348.875 342.236 348.875C341.669 348.875 341.119 348.95 340.586 349.1C339.819 349.333 339.286 349.575 338.986 349.825L338.186 348.275C339.386 347.492 340.777 347.1 342.361 347.1C343.944 347.1 345.169 347.5 346.036 348.3C346.919 349.1 347.361 350.1 347.361 351.3C347.361 352.75 346.569 354.392 344.986 356.225L340.586 361.2H347.511V363H337.861V361.425L343.361 355.2ZM352.3 363V361.2H355.525L355.5 347.5H357.5V361.2H360.3V363H352.3ZM352.075 350.5L351.625 348.75L355.5 347.5V349.5L352.075 350.5Z" fill="#A6A3A3"/>
<path d="M122.361 291V289.2H125.586L125.561 275.5H127.561V289.2H130.361V291H122.361ZM122.136 278.5L121.686 276.75L125.561 275.5V277.5L122.136 278.5ZM135.3 291V289.2H138.525L138.5 275.5H140.5V289.2H143.3V291H135.3ZM135.075 278.5L134.625 276.75L138.5 275.5V277.5L135.075 278.5Z" fill="#6D5E5E"/>
<path d="M122.361 363V361.2H125.586L125.561 347.5H127.561V361.2H130.361V363H122.361ZM122.136 350.5L121.686 348.75L125.561 347.5V349.5L122.136 350.5ZM133.575 358.925C133.575 357.025 134.492 355.642 136.325 354.775C134.875 353.958 134.15 352.833 134.15 351.4C134.15 350.167 134.567 349.142 135.4 348.325C136.233 347.508 137.425 347.1 138.975 347.1C140.525 347.1 141.717 347.508 142.55 348.325C143.383 349.125 143.8 350.192 143.8 351.525C143.8 352.858 143.092 353.958 141.675 354.825C143.475 355.625 144.375 356.992 144.375 358.925C144.375 360.142 143.892 361.192 142.925 362.075C141.975 362.958 140.658 363.4 138.975 363.4C137.292 363.4 135.967 362.958 135 362.075C134.05 361.192 133.575 360.142 133.575 358.925ZM135.475 358.925C135.475 359.675 135.783 360.317 136.4 360.85C137.017 361.367 137.875 361.625 138.975 361.625C140.075 361.625 140.933 361.367 141.55 360.85C142.167 360.317 142.475 359.65 142.475 358.85C142.475 358.033 142.192 357.392 141.625 356.925C141.058 356.458 140.15 356.067 138.9 355.75C138.517 355.667 138.208 355.583 137.975 355.5C136.308 356.383 135.475 357.525 135.475 358.925ZM136.8 349.6C136.3 350.067 136.05 350.65 136.05 351.35C136.05 352.05 136.325 352.617 136.875 353.05C137.425 353.483 138.392 353.875 139.775 354.225C141.192 353.475 141.9 352.492 141.9 351.275C141.9 350.592 141.65 350.025 141.15 349.575C140.65 349.108 139.925 348.875 138.975 348.875C138.042 348.875 137.317 349.117 136.8 349.6Z" fill="#A6A3A3"/>
<path d="M49.8605 291V289.2H53.0855L53.0605 275.5H55.0605V289.2H57.8605V291H49.8605ZM49.6355 278.5L49.1855 276.75L53.0605 275.5V277.5L49.6355 278.5ZM62.15 289.15C61.2 287.633 60.725 285.667 60.725 283.25C60.725 280.833 61.2 278.875 62.15 277.375C63.1 275.858 64.5333 275.1 66.45 275.1C68.3667 275.1 69.8083 275.858 70.775 277.375C71.7417 278.892 72.225 280.85 72.225 283.25C72.225 285.65 71.7417 287.608 70.775 289.125C69.8083 290.642 68.3667 291.4 66.45 291.4C64.5333 291.4 63.1 290.65 62.15 289.15ZM63.6 278.7C62.9833 279.867 62.675 281.383 62.675 283.25C62.675 285.117 62.9833 286.642 63.6 287.825C64.2333 288.992 65.1833 289.575 66.45 289.575C67.7167 289.575 68.6667 288.983 69.3 287.8C69.95 286.617 70.275 285.1 70.275 283.25C70.275 281.4 69.95 279.883 69.3 278.7C68.6667 277.517 67.7167 276.925 66.45 276.925C65.1833 276.925 64.2333 277.517 63.6 278.7Z" fill="#6D5E5E"/>
<path d="M49.8605 363V361.2H53.0855L53.0605 347.5H55.0605V361.2H57.8605V363H49.8605ZM49.6355 350.5L49.1855 348.75L53.0605 347.5V349.5L49.6355 350.5ZM71.65 347.5V348.525L65.6 363H63.425L69.2 349.3H61.45V347.5H71.65Z" fill="#A6A3A3"/>
<path d="M194.361 291V289.2H197.586L197.561 275.5H199.561V289.2H202.361V291H194.361ZM194.136 278.5L193.686 276.75L197.561 275.5V277.5L194.136 278.5ZM211.3 283.2C212.05 282.35 212.567 281.642 212.85 281.075C213.15 280.508 213.3 279.9 213.3 279.25C213.3 278.583 213.033 278.025 212.5 277.575C211.983 277.108 211.208 276.875 210.175 276.875C209.608 276.875 209.058 276.95 208.525 277.1C207.758 277.333 207.225 277.575 206.925 277.825L206.125 276.275C207.325 275.492 208.717 275.1 210.3 275.1C211.883 275.1 213.108 275.5 213.975 276.3C214.858 277.1 215.3 278.1 215.3 279.3C215.3 280.75 214.508 282.392 212.925 284.225L208.525 289.2H215.45V291H205.8V289.425L211.3 283.2Z" fill="#6D5E5E"/>
<path d="M194.361 363V361.2H197.586L197.561 347.5H199.561V361.2H202.361V363H194.361ZM194.136 350.5L193.686 348.75L197.561 347.5V349.5L194.136 350.5ZM209.95 361.625C211.05 361.625 211.992 361.117 212.775 360.1C213.575 359.067 214.05 357.575 214.2 355.625C212.933 356.625 211.583 357.125 210.15 357.125C209.267 357.125 208.5 356.967 207.85 356.65C207.2 356.333 206.7 355.925 206.35 355.425C205.717 354.492 205.4 353.467 205.4 352.35C205.4 350.9 205.85 349.667 206.75 348.65C207.65 347.617 208.967 347.1 210.7 347.1C211.717 347.1 212.592 347.308 213.325 347.725C214.075 348.125 214.65 348.683 215.05 349.4C215.817 350.75 216.2 352.417 216.2 354.4C216.2 357.317 215.6 359.55 214.4 361.1C213.2 362.633 211.683 363.4 209.85 363.4C208.033 363.4 206.583 362.942 205.5 362.025L206.525 360.5C207.308 361.25 208.45 361.625 209.95 361.625ZM210.15 355.375C210.833 355.375 211.542 355.217 212.275 354.9C213.008 354.567 213.65 354.067 214.2 353.4C214.1 352.067 213.767 350.983 213.2 350.15C212.65 349.3 211.825 348.875 210.725 348.875C209.625 348.875 208.783 349.217 208.2 349.9C207.633 350.567 207.35 351.333 207.35 352.2C207.35 353.05 207.567 353.792 208 354.425C208.433 355.058 209.15 355.375 210.15 355.375Z" fill="#A6A3A3"/>
<rect x="45" y="309" width="461" height="11" fill="#D6E7F8"/>
<rect x="47" y="381" width="461" height="10" fill="#D6E7F8"/>
<rect x="45" y="309" width="244" height="11" fill="#77AFE6"/>
<defs>
<filter id="filter0_d_775_88" x="0" y="0" width="548" height="465" filterUnits="userSpaceOnUse" color-interpolation-filters="sRGB">
<feFlood flood-opacity="0" result="BackgroundImageFix"/>
<feColorMatrix in="SourceAlpha" type="matrix" values="0 0 0 0 0 0 0 0 0 0 0 0 0 0 0 0 0 0 127 0" result="hardAlpha"/>
<feOffset dy="4"/>
<feGaussianBlur stdDeviation="2"/>
<feComposite in2="hardAlpha" operator="out"/>
<feColorMatrix type="matrix" values="0 0 0 0 0 0 0 0 0 0 0 0 0 0 0 0 0 0 0.25 0"/>
<feBlend mode="normal" in2="BackgroundImageFix" result="effect1_dropShadow_775_88"/>
<feBlend mode="normal" in="SourceGraphic" in2="effect1_dropShadow_775_88" result="shape"/>
</filter>
<filter id="filter1_d_775_88" x="0" y="0" width="548" height="465" filterUnits="userSpaceOnUse" color-interpolation-filters="sRGB">
<feFlood flood-opacity="0" result="BackgroundImageFix"/>
<feColorMatrix in="SourceAlpha" type="matrix" values="0 0 0 0 0 0 0 0 0 0 0 0 0 0 0 0 0 0 127 0" result="hardAlpha"/>
<feOffset dy="4"/>
<feGaussianBlur stdDeviation="2"/>
<feComposite in2="hardAlpha" operator="out"/>
<feColorMatrix type="matrix" values="0 0 0 0 0 0 0 0 0 0 0 0 0 0 0 0 0 0 0.25 0"/>
<feBlend mode="normal" in2="BackgroundImageFix" result="effect1_dropShadow_775_88"/>
<feBlend mode="normal" in="SourceGraphic" in2="effect1_dropShadow_775_88" result="shape"/>
</filter>
</defs>
</svg>
