<svg width="275" height="60" viewBox="0 0 275 60" fill="none" xmlns="http://www.w3.org/2000/svg">
<path d="M2.95063 14.192H17.4226V21.896H15.4306V15.776H2.95063V14.192ZM15.4306 0.175999H17.4226V12.968H15.4306V0.175999ZM10.1026 5.6H16.0306V7.256H10.1026V5.6ZM0.574625 1.808H10.4866V11.504H0.574625V1.808ZM8.51863 3.392H2.51863V9.92H8.51863V3.392ZM22.8928 11.216H24.5248C28.5328 11.216 31.0768 11.072 34.0287 10.496L34.2208 12.128C31.1968 12.704 28.6048 12.848 24.5248 12.848H22.8928V11.216ZM22.8928 1.952H32.8288V3.584H24.8608V11.72H22.8928V1.952ZM37.5088 0.175999H39.5008V16.016H37.5088V0.175999ZM31.4368 6.176H37.9648V7.784H31.4368V6.176ZM25.6288 19.904H40.0768V21.536H25.6288V19.904ZM25.6288 14.84H27.6208V20.84H25.6288V14.84ZM64.5412 3.464H68.3092V5.144H64.5412V3.464ZM64.5412 8.12H68.3092V9.776H64.5412V8.12ZM63.1492 0.175999H65.1412V13.064H63.1492V0.175999ZM51.0532 14.096H65.1412V21.872H63.1492V15.704H51.0532V14.096ZM54.3652 1.448C57.6292 1.448 60.0292 3.56 60.0292 6.608C60.0292 9.632 57.6292 11.72 54.3652 11.72C51.1012 11.72 48.7012 9.632 48.7012 6.608C48.7012 3.56 51.1012 1.448 54.3652 1.448ZM54.3652 3.152C52.2052 3.152 50.6452 4.544 50.6452 6.608C50.6452 8.648 52.2052 10.064 54.3652 10.064C56.5252 10.064 58.0852 8.648 58.0852 6.608C58.0852 4.544 56.5252 3.152 54.3652 3.152ZM86.1393 0.151999H88.1313V21.896H86.1393V0.151999ZM76.6833 1.832C79.8993 1.832 82.2033 4.784 82.2033 9.392C82.2033 14.024 79.8993 16.976 76.6833 16.976C73.4913 16.976 71.1873 14.024 71.1873 9.392C71.1873 4.784 73.4913 1.832 76.6833 1.832ZM76.6833 3.632C74.5713 3.632 73.0833 5.888 73.0833 9.392C73.0833 12.92 74.5713 15.224 76.6833 15.224C78.8193 15.224 80.2833 12.92 80.2833 9.392C80.2833 5.888 78.8193 3.632 76.6833 3.632ZM97.0198 12.776H116.7V14.408H97.0198V12.776ZM105.804 13.76H107.772V21.872H105.804V13.76ZM99.5158 1.376H114.156V9.848H99.5158V1.376ZM112.212 2.984H101.484V8.24H112.212V2.984ZM134.962 0.175999H136.954V15.056H134.962V0.175999ZM129.778 6.104H135.514V7.736H129.778V6.104ZM125.026 1.64C128.218 1.64 130.618 3.8 130.618 6.896C130.618 9.968 128.218 12.152 125.026 12.152C121.81 12.152 119.434 9.968 119.434 6.896C119.434 3.8 121.81 1.64 125.026 1.64ZM125.026 3.344C122.914 3.344 121.354 4.808 121.354 6.896C121.354 8.96 122.914 10.448 125.026 10.448C127.138 10.448 128.698 8.96 128.698 6.896C128.698 4.808 127.138 3.344 125.026 3.344ZM128.962 13.352H130.666V14.192C130.666 18.104 126.874 20.984 122.458 21.776L121.69 20.192C125.53 19.544 128.962 17.144 128.962 14.192V13.352ZM129.298 13.352H131.002V14.192C131.002 17.216 134.41 19.544 138.298 20.192L137.506 21.776C133.114 20.96 129.298 18.2 129.298 14.192V13.352ZM156.968 0.199999H158.984V16.04H156.968V0.199999ZM145.04 19.76H159.632V21.392H145.04V19.76ZM145.04 14.408H147.008V20.312H145.04V14.408ZM147.344 1.688C150.584 1.688 152.984 3.896 152.984 7.04C152.984 10.16 150.584 12.392 147.344 12.392C144.104 12.392 141.68 10.16 141.68 7.04C141.68 3.896 144.104 1.688 147.344 1.688ZM147.344 3.416C145.232 3.416 143.624 4.904 143.624 7.04C143.624 9.152 145.232 10.64 147.344 10.64C149.456 10.64 151.064 9.152 151.064 7.04C151.064 4.904 149.456 3.416 147.344 3.416ZM169.014 3.272H170.622V6.8C170.622 11.384 167.862 15.992 164.406 17.696L163.254 16.112C166.398 14.624 169.014 10.544 169.014 6.8V3.272ZM169.398 3.272H171.006V6.8C171.006 10.472 173.622 14.216 176.814 15.584L175.686 17.168C172.182 15.536 169.398 11.312 169.398 6.8V3.272ZM163.974 2.384H176.094V4.064H163.974V2.384ZM179.022 0.175999H181.014V21.872H179.022V0.175999ZM196.959 1.736C200.343 1.736 202.767 3.824 202.767 6.848C202.767 9.896 200.343 11.984 196.959 11.984C193.575 11.984 191.127 9.896 191.127 6.848C191.127 3.824 193.575 1.736 196.959 1.736ZM196.959 3.464C194.703 3.464 193.071 4.832 193.071 6.848C193.071 8.864 194.703 10.256 196.959 10.256C199.191 10.256 200.823 8.864 200.823 6.848C200.823 4.832 199.191 3.464 196.959 3.464ZM205.599 0.151999H207.591V21.896H205.599V0.151999ZM190.311 17.144L190.023 15.488C193.983 15.488 199.455 15.464 204.183 14.72L204.351 16.184C199.479 17.12 194.175 17.144 190.311 17.144ZM217.309 2.048H218.941V5.936C218.941 10.736 216.349 15.416 212.917 17.24L211.693 15.656C214.837 14.072 217.309 9.896 217.309 5.936V2.048ZM217.669 2.048H219.277V5.936C219.277 9.752 221.701 13.712 224.773 15.248L223.549 16.832C220.189 15.032 217.669 10.592 217.669 5.936V2.048ZM226.669 0.175999H228.685V21.872H226.669V0.175999ZM228.205 8.96H232.237V10.64H228.205V8.96ZM242.867 8.6H246.971V10.256H242.867V8.6ZM250.595 0.175999H252.515V21.872H250.595V0.175999ZM246.299 0.631999H248.195V20.792H246.299V0.631999ZM238.955 1.976C241.763 1.976 243.587 4.88 243.587 9.536C243.587 14.192 241.763 17.096 238.955 17.096C236.147 17.096 234.347 14.192 234.347 9.536C234.347 4.88 236.147 1.976 238.955 1.976ZM238.955 3.824C237.251 3.824 236.171 6.032 236.171 9.536C236.171 13.04 237.251 15.248 238.955 15.248C240.683 15.248 241.763 13.04 241.763 9.536C241.763 6.032 240.683 3.824 238.955 3.824ZM272.673 0.175999H274.593V21.872H272.673V0.175999ZM263.265 9.032H268.737V10.64H263.265V9.032ZM268.161 0.727999H270.033V20.768H268.161V0.727999ZM263.529 2.912H265.449C265.449 8.6 263.169 13.712 257.313 17.192L256.137 15.776C261.249 12.704 263.529 8.384 263.529 3.272V2.912ZM257.097 2.912H264.273V4.544H257.097V2.912ZM33.2125 39.736C36.5965 39.736 39.0205 41.824 39.0205 44.848C39.0205 47.896 36.5965 49.984 33.2125 49.984C29.8285 49.984 27.3805 47.896 27.3805 44.848C27.3805 41.824 29.8285 39.736 33.2125 39.736ZM33.2125 41.464C30.9565 41.464 29.3245 42.832 29.3245 44.848C29.3245 46.864 30.9565 48.256 33.2125 48.256C35.4445 48.256 37.0765 46.864 37.0765 44.848C37.0765 42.832 35.4445 41.464 33.2125 41.464ZM41.8525 38.152H43.8445V59.896H41.8525V38.152ZM26.5645 55.144L26.2765 53.488C30.2365 53.488 35.7085 53.464 40.4365 52.72L40.6045 54.184C35.7325 55.12 30.4285 55.144 26.5645 55.144ZM53.7306 50.896H55.6986V56.224H53.7306V50.896ZM60.6666 50.848H62.6106V56.2H60.6666V50.848ZM48.2586 55.552H67.9146V57.208H48.2586V55.552ZM50.6346 39.784H65.4906V46.336H52.6746V50.704H50.7066V44.752H63.5226V41.392H50.6346V39.784ZM50.7066 49.816H65.9946V51.448H50.7066V49.816ZM86.1287 38.176H88.1207V59.872H86.1287V38.176ZM79.7687 40.504H81.7367C81.7367 46.792 78.9047 52.288 71.6567 55.84L70.6007 54.232C76.8647 51.208 79.7687 46.6 79.7687 40.84V40.504ZM71.5847 40.504H80.6327V42.136H71.5847V40.504ZM92.3908 50.104H112.071V51.736H92.3908V50.104ZM94.8868 38.728H109.527V43.984H96.9028V46.912H94.9348V42.52H107.583V40.288H94.8868V38.728ZM94.9348 46.264H110.007V47.824H94.9348V46.264ZM101.223 47.08H103.215V50.92H101.223V47.08ZM94.5748 53.392H109.671V59.68H107.679V55.024H94.5748V53.392ZM124.285 38.536C129.061 38.536 131.917 39.88 131.917 42.304C131.917 44.728 129.061 46.072 124.285 46.072C119.485 46.072 116.653 44.728 116.653 42.304C116.653 39.88 119.485 38.536 124.285 38.536ZM124.285 40.048C120.733 40.048 118.693 40.864 118.693 42.304C118.693 43.744 120.733 44.56 124.285 44.56C127.813 44.56 129.853 43.744 129.853 42.304C129.853 40.864 127.813 40.048 124.285 40.048ZM114.469 47.512H134.077V49.12H114.469V47.512ZM116.845 50.968H131.581V55.864H118.861V58.504H116.893V54.424H129.613V52.504H116.845V50.968ZM116.893 58.072H132.229V59.632H116.893V58.072ZM141.141 55.456H160.797V57.112H141.141V55.456ZM149.925 50.272H151.917V55.936H149.925V50.272ZM143.445 39.712H145.413V43.576H156.477V39.712H158.445V50.8H143.445V39.712ZM145.413 45.184V49.168H156.477V45.184H145.413ZM172.988 43H179.54V44.656H172.988V43ZM172.988 49.864H179.54V51.52H172.988V49.864ZM169.004 39.832C172.148 39.832 174.404 42.784 174.404 47.392C174.404 52.024 172.148 54.976 169.004 54.976C165.836 54.976 163.604 52.024 163.604 47.392C163.604 42.784 165.836 39.832 169.004 39.832ZM169.004 41.632C166.916 41.632 165.476 43.888 165.476 47.392C165.476 50.92 166.916 53.224 169.004 53.224C171.092 53.224 172.532 50.92 172.532 47.392C172.532 43.888 171.092 41.632 169.004 41.632ZM179.108 38.152H181.076V59.896H179.108V38.152ZM193.986 40.312H195.714V41.224C195.714 45.112 191.586 47.968 187.218 48.712L186.45 47.128C190.266 46.576 193.986 44.08 193.986 41.224V40.312ZM194.49 40.312H196.194V41.224C196.194 44.08 199.938 46.576 203.73 47.128L202.986 48.712C198.594 47.968 194.49 45.112 194.49 41.224V40.312ZM194.058 51.592H196.026V59.872H194.058V51.592ZM185.298 50.536H204.906V52.168H185.298V50.536ZM187.122 39.52H203.01V41.128H187.122V39.52ZM215.92 45.928H220.072V47.584H215.92V45.928ZM211.864 40.216H213.424V44.344C213.424 48.88 211.528 53.272 208.36 55.216L207.112 53.704C210.088 51.952 211.864 48.064 211.864 44.344V40.216ZM212.248 40.216H213.784V44.272C213.784 47.752 215.416 51.448 218.272 53.176L217.12 54.736C214 52.816 212.248 48.496 212.248 44.272V40.216ZM223.888 38.176H225.808V59.872H223.888V38.176ZM219.496 38.632H221.368V58.792H219.496V38.632ZM234.254 49.336H236.222V55.84H234.254V49.336ZM242.27 49.336H244.262V55.84H242.27V49.336ZM229.454 55.456H249.11V57.112H229.454V55.456ZM239.246 39.544C243.83 39.544 247.118 41.728 247.118 45.136C247.118 48.52 243.83 50.704 239.246 50.704C234.638 50.704 231.35 48.52 231.35 45.136C231.35 41.728 234.638 39.544 239.246 39.544ZM239.246 41.128C235.766 41.128 233.27 42.712 233.27 45.136C233.27 47.536 235.766 49.12 239.246 49.12C242.726 49.12 245.198 47.536 245.198 45.136C245.198 42.712 242.726 41.128 239.246 41.128ZM253.965 56.8281C253.965 57.0156 253.926 57.1953 253.848 57.3672C253.613 57.8672 253.223 58.1172 252.676 58.1172C252.488 58.1172 252.309 58.0781 252.137 58C251.637 57.7656 251.387 57.375 251.387 56.8281C251.387 56.6406 251.434 56.4453 251.527 56.2422C251.762 55.7578 252.145 55.5156 252.676 55.5156C252.863 55.5156 253.051 55.5625 253.238 55.6562C253.723 55.8906 253.965 56.2812 253.965 56.8281Z" fill="black"/>
</svg>
