<svg width="163" height="33" viewBox="0 0 163 33" fill="none" xmlns="http://www.w3.org/2000/svg">
<path d="M0.867633 24.716H29.3596V28.388H0.867633V24.716ZM12.8016 17.984H17.3236V25.6H12.8016V17.984ZM3.85963 2.548H8.34763V7.376H21.7776V2.548H26.2656V18.936H3.85963V2.548ZM8.34763 10.912V15.332H21.7776V10.912H8.34763ZM46.187 6.968H54.755V10.606H46.187V6.968ZM46.187 16.726H54.755V20.364H46.187V16.726ZM40.747 2.718C45.439 2.718 48.873 7.07 48.873 13.938C48.873 20.874 45.439 25.226 40.747 25.226C36.021 25.226 32.621 20.874 32.621 13.938C32.621 7.07 36.021 2.718 40.747 2.718ZM40.747 6.832C38.469 6.832 36.905 9.314 36.905 13.938C36.905 18.63 38.469 21.146 40.747 21.146C43.059 21.146 44.589 18.63 44.589 13.938C44.589 9.314 43.059 6.832 40.747 6.832ZM54.041 0.507998H58.529V32.094H54.041V0.507998ZM75.0503 4.044H78.9603V4.962C78.9603 10.504 74.4383 15.026 66.4483 16.114L64.7823 12.578C71.7183 11.728 75.0503 8.192 75.0503 4.962V4.044ZM76.3423 4.044H80.2523V4.962C80.2523 8.192 83.5843 11.728 90.5203 12.578L88.8883 16.114C80.8643 15.026 76.3423 10.504 76.3423 4.962V4.044ZM75.2883 20.5H79.7763V32.06H75.2883V20.5ZM63.4223 17.916H91.8803V21.52H63.4223V17.916ZM65.9383 2.14H89.2963V5.71H65.9383V2.14ZM107.076 11.116H112.278V14.788H107.076V11.116ZM100.344 3.262H103.812V8.566C103.812 15.706 101.84 22.676 96.8077 25.77L94.0877 22.37C98.7117 19.514 100.344 13.904 100.344 8.566V3.262ZM101.33 3.262H104.73V8.362C104.73 13.496 106.056 18.732 110.34 21.52L107.892 25.056C102.894 21.962 101.33 15.162 101.33 8.362V3.262ZM117.412 0.542H121.73V32.026H117.412V0.542ZM111.02 1.018H115.236V30.598H111.02V1.018ZM132.233 16.522H136.721V25.362H132.233V16.522ZM143.657 16.522H148.179V25.362H143.657V16.522ZM125.977 24.716H154.469V28.388H125.977V24.716ZM140.189 2.072C146.955 2.072 151.953 5.404 151.953 10.538C151.953 15.672 146.955 18.97 140.189 18.97C133.389 18.97 128.425 15.672 128.425 10.538C128.425 5.404 133.389 2.072 140.189 2.072ZM140.189 5.608C135.803 5.608 132.879 7.41 132.879 10.538C132.879 13.632 135.803 15.468 140.189 15.468C144.575 15.468 147.499 13.632 147.499 10.538C147.499 7.41 144.575 5.608 140.189 5.608ZM160.708 23.123H159.646C159.646 20.4447 159.369 17.7884 158.815 15.1543C158.373 13.0514 158.151 11.668 158.151 11.0039C158.174 9.54297 158.86 8.79036 160.21 8.74609C161.516 8.76823 162.191 9.50977 162.235 10.9707C162.235 11.679 162.069 12.7858 161.737 14.291C161.051 17.4564 160.708 20.4004 160.708 23.123ZM162.136 27.207C162.136 27.4948 162.069 27.7826 161.937 28.0703C161.56 28.8008 160.974 29.166 160.177 29.166C159.889 29.166 159.612 29.1107 159.347 29C158.594 28.6458 158.218 28.0482 158.218 27.207C158.218 26.9193 158.284 26.6315 158.417 26.3438C158.771 25.5911 159.358 25.2148 160.177 25.2148C160.487 25.2148 160.785 25.2923 161.073 25.4473C161.782 25.8236 162.136 26.4102 162.136 27.207Z" fill="black"/>
</svg>
