<svg width="478" height="87" viewBox="0 0 478 87" fill="none" xmlns="http://www.w3.org/2000/svg">
<path d="M145.154 1.252H166.873V5.137H145.154V1.252ZM141.38 13.092H172.386V17.014H141.38V13.092ZM154.367 15.793H159.288V22.638H154.367V15.793ZM163.913 1.252H168.76V3.953C168.76 6.913 168.76 10.354 167.687 14.831L162.84 14.387C163.913 9.984 163.913 6.839 163.913 3.953V1.252ZM156.846 21.084C164.283 21.084 168.871 23.526 168.871 27.707C168.871 31.925 164.283 34.33 156.846 34.33C149.372 34.33 144.784 31.925 144.784 27.707C144.784 23.526 149.372 21.084 156.846 21.084ZM156.846 25.006C152.184 25.006 149.742 25.857 149.742 27.707C149.742 29.557 152.184 30.445 156.846 30.445C161.508 30.445 163.913 29.557 163.913 27.707C163.913 25.857 161.508 25.006 156.846 25.006ZM179.191 1.548H200.91V5.47H179.191V1.548ZM175.417 13.869H206.423V17.791H175.417V13.869ZM197.95 1.548H202.797V4.286C202.797 7.246 202.797 10.428 201.761 14.868L196.877 14.794C197.95 10.354 197.95 7.209 197.95 4.286V1.548ZM179.043 21.38H202.649V33.923H179.043V21.38ZM197.802 25.191H183.853V30.038H197.802V25.191ZM231.396 0.0309995H236.28V34.293H231.396V0.0309995ZM235.17 13.388H241.238V17.495H235.17V13.388ZM209.27 5.1H229.213V9.022H209.27V5.1ZM219.297 10.946C224.292 10.946 227.992 14.35 227.992 19.123C227.992 23.896 224.292 27.3 219.297 27.3C214.302 27.3 210.602 23.896 210.602 19.123C210.602 14.35 214.302 10.946 219.297 10.946ZM219.297 14.942C216.966 14.942 215.301 16.496 215.301 19.123C215.301 21.75 216.966 23.304 219.297 23.304C221.628 23.304 223.293 21.75 223.293 19.123C223.293 16.496 221.628 14.942 219.297 14.942ZM216.818 0.585999H221.739V6.58H216.818V0.585999ZM261.696 3.435H268.541V7.357H261.696V3.435ZM261.696 9.836H268.541V13.721H261.696V9.836ZM267.209 0.0309995H272.13V19.715H267.209V0.0309995ZM251.299 1.252H255.332V4.36C255.332 11.39 252.409 17.569 245.934 19.974L243.233 16.126C248.968 14.091 251.299 9.281 251.299 4.36V1.252ZM252.261 1.252H256.257V4.36C256.257 9.059 258.477 13.721 263.916 15.719L261.178 19.604C255.036 17.199 252.261 11.168 252.261 4.36V1.252ZM251.558 21.01H255.258V21.824C255.258 27.041 253.001 31.888 247.636 33.849L245.231 30.26C249.708 28.706 251.558 25.228 251.558 21.824V21.01ZM252.816 21.01H256.368V21.824C256.368 25.228 257.996 28.817 262.251 30.593L260.216 34.182C254.777 32.147 252.816 26.93 252.816 21.824V21.01ZM264.064 21.01H267.579V21.824C267.579 26.597 265.581 32.036 260.216 34.182L258.181 30.593C262.399 28.632 264.064 24.895 264.064 21.824V21.01ZM265.211 21.01H268.911V21.824C268.911 25.45 270.724 28.817 275.312 30.26L272.833 33.849C267.431 31.962 265.211 27.3 265.211 21.824V21.01ZM285.114 19.493H290.035V28.484H285.114V19.493ZM295.992 19.493H300.913V28.484H295.992V19.493ZM277.529 26.449H308.535V30.445H277.529V26.449ZM290.405 4.101H294.549V5.322C294.549 12.537 289.369 18.272 280.637 19.9L278.713 15.941C286.335 14.757 290.405 10.095 290.405 5.322V4.101ZM291.404 4.101H295.548V5.322C295.548 10.095 299.618 14.646 307.425 15.793L305.538 19.715C296.658 18.124 291.404 12.537 291.404 5.322V4.101ZM280.082 2.51H305.871V6.432H280.082V2.51ZM318.143 24.6045H316.986C316.986 23.0869 317.251 21.738 317.781 20.5576C317.95 20.1722 318.504 19.2568 319.443 17.8115C320.431 16.2699 320.925 14.6439 320.925 12.9336C320.901 10.9583 319.961 9.94661 318.106 9.89844C317.552 9.89844 317.095 10.0189 316.733 10.2598C316.3 10.5488 316.023 11.2474 315.902 12.3555C315.854 12.7409 315.818 13.0299 315.794 13.2227C315.577 14.1621 314.975 14.6318 313.987 14.6318C312.903 14.5355 312.265 13.8971 312.072 12.7168C312.096 11.9219 312.446 11.1992 313.12 10.5488C314.349 9.48893 316.083 8.95898 318.323 8.95898C319.431 8.95898 320.443 9.10352 321.358 9.39258C323.695 10.0911 324.863 11.5003 324.863 13.6201C324.863 14.391 324.683 15.1136 324.321 15.7881C323.936 16.5107 323.081 17.4141 321.756 18.498C321.202 18.9557 320.792 19.305 320.527 19.5459C318.938 21.0153 318.143 22.7015 318.143 24.6045ZM319.769 29.0488C319.769 29.362 319.696 29.6751 319.552 29.9883C319.142 30.7832 318.504 31.1807 317.637 31.1807C317.324 31.1807 317.022 31.1204 316.733 31C315.914 30.6146 315.505 29.9642 315.505 29.0488C315.505 28.7357 315.577 28.4225 315.722 28.1094C316.107 27.2904 316.745 26.8809 317.637 26.8809C317.974 26.8809 318.299 26.9652 318.612 27.1338C319.383 27.5433 319.769 28.1816 319.769 29.0488ZM331.981 24.6045H330.825C330.825 21.6898 330.524 18.7992 329.922 15.9326C329.44 13.6442 329.199 12.1387 329.199 11.416C329.223 9.82617 329.97 9.00716 331.439 8.95898C332.861 8.98307 333.595 9.79004 333.644 11.3799C333.644 12.1507 333.463 13.3551 333.102 14.9932C332.355 18.4378 331.981 21.6416 331.981 24.6045ZM333.535 29.0488C333.535 29.362 333.463 29.6751 333.318 29.9883C332.909 30.7832 332.271 31.1807 331.403 31.1807C331.09 31.1807 330.789 31.1204 330.5 31C329.681 30.6146 329.271 29.9642 329.271 29.0488C329.271 28.7357 329.344 28.4225 329.488 28.1094C329.874 27.2904 330.512 26.8809 331.403 26.8809C331.741 26.8809 332.066 26.9652 332.379 27.1338C333.15 27.5433 333.535 28.1816 333.535 29.0488ZM18.3111 60.872H20.5511V86.184H18.3111V60.872ZM14.0551 71.176H18.9271V73.08H14.0551V71.176ZM12.5711 61.432H14.7551V84.896H12.5711V61.432ZM0.307125 63.924H2.63113V78.54H0.307125V63.924ZM0.307125 77.616H1.93113C4.53513 77.616 7.44713 77.448 10.7511 76.804L11.0031 78.82C7.55913 79.492 4.64713 79.632 1.93113 79.632H0.307125V77.616ZM41.9689 60.844H44.3209V86.184H41.9689V60.844ZM43.6769 71.12H48.3529V73.052H43.6769V71.12ZM35.5009 63.588H37.7689C37.7689 70.784 34.4649 77.28 26.2889 81.396L25.0009 79.604C32.0009 76.048 35.5009 70.644 35.5009 63.952V63.588ZM26.1769 63.588H36.7049V65.492H26.1769V63.588ZM59.8708 77.224H76.7548V86.212H74.4308V79.072H59.8708V77.224ZM74.4308 60.872H76.7548V75.796H74.4308V60.872ZM68.2148 67.2H75.1308V69.132H68.2148V67.2ZM57.0988 62.776H68.6628V74.088H57.0988V62.776ZM66.3668 64.624H59.3668V72.24H66.3668V64.624ZM84.7886 68.46H101.981V70.364H84.7886V68.46ZM81.6806 73.752H104.641V75.656H81.6806V73.752ZM84.7886 61.796H87.0846V69.412H84.7886V61.796ZM84.6206 83.664H102.121V85.568H84.6206V83.664ZM84.6206 78.176H86.9166V84.168H84.6206V78.176ZM131.726 64.708H136.122V66.668H131.726V64.708ZM131.726 70.14H136.122V72.072H131.726V70.14ZM130.102 60.872H132.426V75.908H130.102V60.872ZM115.99 77.112H132.426V86.184H130.102V78.988H115.99V77.112ZM119.854 62.356C123.662 62.356 126.462 64.82 126.462 68.376C126.462 71.904 123.662 74.34 119.854 74.34C116.046 74.34 113.246 71.904 113.246 68.376C113.246 64.82 116.046 62.356 119.854 62.356ZM119.854 64.344C117.334 64.344 115.514 65.968 115.514 68.376C115.514 70.756 117.334 72.408 119.854 72.408C122.374 72.408 124.194 70.756 124.194 68.376C124.194 65.968 122.374 64.344 119.854 64.344ZM141.422 82.9062C141.349 84.1823 140.747 85.4674 139.617 86.7617L139.043 86.3516C139.809 85.5495 140.201 84.8932 140.219 84.3828C140.201 84.1458 139.982 83.9727 139.562 83.8633C139.471 83.8451 139.38 83.8177 139.289 83.7812C138.688 83.5443 138.387 83.1159 138.387 82.4961C138.387 82.2773 138.432 82.0677 138.523 81.8672C138.779 81.2839 139.207 80.9922 139.809 80.9922C139.973 80.9922 140.137 81.0195 140.301 81.0742C141.048 81.293 141.422 81.9036 141.422 82.9062ZM155.886 62.804C159.554 62.804 162.186 66.248 162.186 71.624C162.186 77.028 159.554 80.472 155.886 80.472C152.19 80.472 149.586 77.028 149.586 71.624C149.586 66.248 152.19 62.804 155.886 62.804ZM155.886 64.904C153.45 64.904 151.798 67.536 151.798 71.624C151.798 75.74 153.45 78.428 155.886 78.428C158.322 78.428 159.974 75.74 159.974 71.624C159.974 67.536 158.322 64.904 155.886 64.904ZM167.674 60.844H169.97V86.212H167.674V60.844ZM161.43 70.504H168.682V72.408H161.43V70.504ZM179.068 83.72H196.596V85.624H179.068V83.72ZM179.068 77.784H181.42V84.784H179.068V77.784ZM193.656 60.9H195.98V79.324H193.656V60.9ZM189.12 67.816H195.532V69.72H189.12V67.816ZM175.54 73.332H176.66C178.172 73.332 180.076 73.276 182.232 72.8L182.456 74.704C180.132 75.208 178.284 75.236 176.66 75.236H175.54V73.332ZM175.54 62.972H181.952V64.876H177.836V73.892H175.54V62.972ZM183.324 73.332H184.584C187.272 73.332 189.092 73.276 191.248 72.772L191.472 74.676C189.204 75.152 187.356 75.236 184.584 75.236H183.324V73.332ZM183.324 62.972H190.296V64.876H185.592V73.836H183.324V62.972ZM224.914 64.708H229.31V66.668H224.914V64.708ZM224.914 70.14H229.31V72.072H224.914V70.14ZM223.29 60.872H225.614V75.908H223.29V60.872ZM209.178 77.112H225.614V86.184H223.29V78.988H209.178V77.112ZM213.042 62.356C216.85 62.356 219.65 64.82 219.65 68.376C219.65 71.904 216.85 74.34 213.042 74.34C209.234 74.34 206.434 71.904 206.434 68.376C206.434 64.82 209.234 62.356 213.042 62.356ZM213.042 64.344C210.522 64.344 208.702 65.968 208.702 68.376C208.702 70.756 210.522 72.408 213.042 72.408C215.562 72.408 217.382 70.756 217.382 68.376C217.382 65.968 215.562 64.344 213.042 64.344ZM250.14 60.9H252.492V79.38H250.14V60.9ZM236.224 83.72H253.248V85.624H236.224V83.72ZM236.224 77.476H238.52V84.364H236.224V77.476ZM238.912 62.636C242.692 62.636 245.492 65.212 245.492 68.88C245.492 72.52 242.692 75.124 238.912 75.124C235.132 75.124 232.304 72.52 232.304 68.88C232.304 65.212 235.132 62.636 238.912 62.636ZM238.912 64.652C236.448 64.652 234.572 66.388 234.572 68.88C234.572 71.344 236.448 73.08 238.912 73.08C241.376 73.08 243.252 71.344 243.252 68.88C243.252 66.388 241.376 64.652 238.912 64.652ZM264.194 64.484H266.07V68.6C266.07 73.948 262.85 79.324 258.818 81.312L257.474 79.464C261.142 77.728 264.194 72.968 264.194 68.6V64.484ZM264.642 64.484H266.518V68.6C266.518 72.884 269.57 77.252 273.294 78.848L271.978 80.696C267.89 78.792 264.642 73.864 264.642 68.6V64.484ZM258.314 63.448H272.454V65.408H258.314V63.448ZM275.87 60.872H278.194V86.184H275.87V60.872ZM296.179 72.632H298.475V77.392H296.179V72.632ZM292.539 76.664H294.863V79.38H306.875V76.664H309.171V85.848H292.539V76.664ZM294.863 81.2V83.972H306.875V81.2H294.863ZM306.847 60.872H309.171V75.404H306.847V60.872ZM288.927 73.864L288.619 71.96C293.351 71.96 299.651 71.932 305.167 71.204L305.335 72.884C299.679 73.836 293.547 73.864 288.927 73.864ZM295.871 61.488H297.747V62.748C297.747 66.416 294.975 69.3 290.747 70.364L289.711 68.6C293.407 67.704 295.871 65.408 295.871 62.748V61.488ZM296.375 61.488H298.279V62.748C298.279 65.324 300.771 67.452 304.383 68.208L303.403 70C299.203 69.02 296.375 66.304 296.375 62.748V61.488ZM333.613 60.872H335.853V86.184H333.613V60.872ZM322.637 71.204H329.021V73.08H322.637V71.204ZM328.349 61.516H330.533V84.896H328.349V61.516ZM322.945 64.064H325.185C325.185 70.7 322.525 76.664 315.693 80.724L314.321 79.072C320.285 75.488 322.945 70.448 322.945 64.484V64.064ZM315.441 64.064H323.813V65.968H315.441V64.064ZM362.743 60.872H365.067V73.752H362.743V60.872ZM364.059 66.304H368.791V68.236H364.059V66.304ZM348.995 74.956H365.067V81.172H351.347V84.952H349.051V79.408H362.799V76.804H348.995V74.956ZM349.051 83.972H365.991V85.848H349.051V83.972ZM352.411 61.768C356.219 61.768 358.963 64.092 358.963 67.396C358.963 70.728 356.219 73.052 352.411 73.052C348.659 73.052 345.887 70.728 345.887 67.396C345.887 64.092 348.659 61.768 352.411 61.768ZM352.411 63.672C349.975 63.672 348.155 65.212 348.155 67.396C348.155 69.608 349.975 71.148 352.411 71.148C354.903 71.148 356.723 69.608 356.723 67.396C356.723 65.212 354.903 63.672 352.411 63.672ZM389.677 60.844H392.001V86.212H389.677V60.844ZM384.693 66.64H390.293V68.544H384.693V66.64ZM372.121 78.372H373.997C377.917 78.372 381.137 78.26 385.001 77.644L385.225 79.576C381.249 80.192 378.001 80.332 373.997 80.332H372.121V78.372ZM372.065 63.14H383.125V72.212H374.417V78.82H372.121V70.308H380.829V65.072H372.065V63.14ZM384.525 73.556H390.125V75.46H384.525V73.556ZM399.839 72.996H417.227V74.9H399.839V72.996ZM396.955 80.836H419.887V82.768H396.955V80.836ZM399.839 63.196H416.975V65.128H402.163V73.836H399.839V63.196ZM441.193 60.844H443.517V86.212H441.193V60.844ZM436.209 66.64H441.809V68.544H436.209V66.64ZM423.637 78.372H425.513C429.433 78.372 432.653 78.26 436.517 77.644L436.74 79.576C432.765 80.192 429.517 80.332 425.513 80.332H423.637V78.372ZM423.581 63.14H434.641V72.212H425.933V78.82H423.637V70.308H432.345V65.072H423.581V63.14ZM436.041 73.556H441.641V75.46H436.041V73.556ZM454.07 73.892H456.366V81.48H454.07V73.892ZM463.422 73.892H465.746V81.48H463.422V73.892ZM448.47 81.032H471.402V82.964H448.47V81.032ZM459.894 62.468C465.242 62.468 469.078 65.016 469.078 68.992C469.078 72.94 465.242 75.488 459.894 75.488C454.518 75.488 450.682 72.94 450.682 68.992C450.682 65.016 454.518 62.468 459.894 62.468ZM459.894 64.316C455.834 64.316 452.922 66.164 452.922 68.992C452.922 71.792 455.834 73.64 459.894 73.64C463.954 73.64 466.838 71.792 466.838 68.992C466.838 66.164 463.954 64.316 459.894 64.316ZM477.066 82.6328C477.066 82.8516 477.021 83.0612 476.93 83.2617C476.656 83.8451 476.201 84.1367 475.562 84.1367C475.344 84.1367 475.134 84.0911 474.934 84C474.35 83.7266 474.059 83.2708 474.059 82.6328C474.059 82.4141 474.113 82.1862 474.223 81.9492C474.496 81.3841 474.943 81.1016 475.562 81.1016C475.781 81.1016 476 81.1562 476.219 81.2656C476.784 81.5391 477.066 81.9948 477.066 82.6328Z" fill="black"/>
</svg>
