<svg width="285" height="242" viewBox="0 0 285 242" fill="none" xmlns="http://www.w3.org/2000/svg">
<g filter="url(#filter0_d_1_48)">
<rect x="4" width="277" height="234" rx="23" fill="white"/>
</g>
<g filter="url(#filter1_d_1_48)">
<rect x="4" width="277" height="234" rx="23" fill="white"/>
</g>
<rect x="18" y="16" width="91" height="40" rx="20" fill="#FFC9B0" fill-opacity="0.27"/>
<rect x="119" y="26" width="140" height="8" rx="4" fill="#D9D9D9" fill-opacity="0.58"/>
<rect x="119" y="39" width="81" height="8" rx="4" fill="#D9D9D9" fill-opacity="0.58"/>
<rect x="119" y="74" width="140" height="9" rx="4.5" fill="#D9D9D9" fill-opacity="0.58"/>
<rect x="119" y="88" width="81" height="8" rx="4" fill="#D9D9D9" fill-opacity="0.58"/>
<rect x="18" y="65" width="91" height="41" rx="20.5" fill="#FFC9B0" fill-opacity="0.27"/>
<path d="M30.4595 121.691C32.2145 121.691 33.5015 122.757 33.5015 124.304C33.5015 125.838 32.2145 126.904 30.4595 126.904C28.7175 126.904 27.4305 125.838 27.4305 124.304C27.4305 122.757 28.7175 121.691 30.4595 121.691ZM30.4595 122.575C29.3285 122.575 28.4705 123.29 28.4705 124.304C28.4705 125.318 29.3285 126.02 30.4595 126.02C31.6035 126.02 32.4485 125.318 32.4485 124.304C32.4485 123.29 31.6035 122.575 30.4595 122.575ZM35.7115 121.262H36.8035V127.281H35.7115V121.262ZM29.1985 127.853H36.8035V130.713H30.2775V132.481H29.2245V129.907H35.7375V128.724H29.1985V127.853ZM29.2245 132H37.1935V132.858H29.2245V132Z" fill="#A6A3A3"/>
<path d="M67.3165 126.124H68.3955V128.217H67.3165V126.124ZM72.7115 121.262H73.7905V128.178H72.7115V121.262ZM64.2615 126.488L64.1315 125.682C66.3935 125.682 69.2665 125.669 71.7755 125.383L71.8405 126.085C69.2665 126.462 66.4585 126.488 64.2615 126.488ZM65.9125 128.607H73.7905V131.051H66.9915V132.377H65.9385V130.336H72.7245V129.387H65.9125V128.607ZM65.9385 132.104H74.1805V132.884H65.9385V132.104ZM70.3715 126.852H73.0495V127.554H70.3715V126.852ZM67.9275 121.483C69.6695 121.483 70.8135 122.159 70.8135 123.251C70.8135 124.343 69.6695 125.019 67.9275 125.019C66.1725 125.019 65.0285 124.343 65.0285 123.251C65.0285 122.159 66.1725 121.483 67.9275 121.483ZM67.9275 122.237C66.7705 122.237 66.0295 122.627 66.0295 123.251C66.0295 123.875 66.7705 124.265 67.9275 124.265C69.0585 124.265 69.7995 123.875 69.7995 123.251C69.7995 122.627 69.0585 122.237 67.9275 122.237Z" fill="#A6A3A3"/>
<path d="M104.213 128.269H105.292V130.18H104.213V128.269ZM109.153 121.262H110.232V133.014H109.153V121.262ZM109.881 126.254H112.052V127.164H109.881V126.254ZM101.184 130.778L101.028 129.881C103.134 129.881 106.007 129.855 108.438 129.504L108.529 130.31C105.994 130.765 103.238 130.778 101.184 130.778ZM101.223 122.679H108.256V123.55H101.223V122.679ZM104.746 124.239C106.384 124.239 107.515 125.097 107.515 126.41C107.515 127.736 106.384 128.581 104.746 128.581C103.108 128.581 101.99 127.736 101.99 126.41C101.99 125.097 103.108 124.239 104.746 124.239ZM104.746 125.071C103.693 125.071 103.004 125.604 103.004 126.41C103.004 127.216 103.693 127.749 104.746 127.749C105.799 127.749 106.501 127.216 106.501 126.41C106.501 125.604 105.799 125.071 104.746 125.071ZM104.213 121.275H105.292V123.264H104.213V121.275Z" fill="#A6A3A3"/>
<path d="M142.916 121.678H143.865V122.328C143.865 124.577 141.577 126.189 139.133 126.605L138.704 125.734C140.849 125.409 142.916 124.005 142.916 122.328V121.678ZM143.111 121.678H144.047V122.328C144.047 123.966 146.14 125.409 148.259 125.734L147.83 126.605C145.412 126.189 143.111 124.551 143.111 122.328V121.678ZM142.916 128.542H143.982V133.014H142.916V128.542ZM138.171 127.879H148.792V128.776H138.171V127.879Z" fill="#A6A3A3"/>
<path d="M176.523 121.743H184.427V125.747H176.523V121.743ZM183.361 122.614H177.576V124.876H183.361V122.614ZM175.158 127.216H185.779V128.087H175.158V127.216ZM179.942 125.513H181.008V127.541H179.942V125.513ZM176.341 129.296H184.466V133.014H183.387V130.18H176.341V129.296Z" fill="#A6A3A3"/>
<path d="M214.023 121.873H221.589V122.757H214.023V121.873ZM212.671 126.202H223.318V127.086H212.671V126.202ZM220.887 121.873H221.94V122.744C221.94 123.745 221.94 124.889 221.55 126.514L220.497 126.462C220.887 124.85 220.887 123.719 220.887 122.744V121.873ZM213.971 128.685H221.979V132.858H213.971V128.685ZM220.926 129.543H215.024V131.987H220.926V129.543Z" fill="#A6A3A3"/>
<path d="M251.536 127.359H259.609V128.23H251.536V127.359ZM250.171 130.661H260.818V131.558H250.171V130.661ZM254.942 127.814H256.008V131.077H254.942V127.814ZM251.536 122.211H259.479V123.095H252.628V127.684H251.536V122.211ZM252.277 124.733H259.232V125.604H252.277V124.733Z" fill="#A6A3A3"/>
<path d="M212.416 150V148.92H214.351L214.336 140.7H215.536V148.92H217.216V150H212.416ZM212.281 142.5L212.011 141.45L214.336 140.7V141.9L212.281 142.5ZM224.815 140.7V141.78H221.215L221.095 144.585H222.145C223.195 144.585 223.97 144.84 224.47 145.35C224.98 145.86 225.235 146.52 225.235 147.33C225.235 148.14 224.935 148.83 224.335 149.4C223.745 149.96 222.915 150.24 221.845 150.24C220.785 150.24 219.94 150.025 219.31 149.595L219.805 148.695C220.295 149.015 220.935 149.175 221.725 149.175C222.525 149.175 223.12 149 223.51 148.65C223.9 148.3 224.095 147.88 224.095 147.39C224.095 146.9 223.935 146.49 223.615 146.16C223.295 145.82 222.805 145.65 222.145 145.65H219.94L220.135 140.7H224.815Z" fill="#A6A3A3"/>
<path d="M214.816 182.32C215.266 181.81 215.576 181.385 215.746 181.045C215.926 180.705 216.016 180.34 216.016 179.95C216.016 179.55 215.856 179.215 215.536 178.945C215.226 178.665 214.761 178.525 214.141 178.525C213.801 178.525 213.471 178.57 213.151 178.66C212.691 178.8 212.371 178.945 212.191 179.095L211.711 178.165C212.431 177.695 213.266 177.46 214.216 177.46C215.166 177.46 215.901 177.7 216.421 178.18C216.951 178.66 217.216 179.26 217.216 179.98C217.216 180.85 216.741 181.835 215.791 182.935L213.151 185.92H217.306V187H211.516V186.055L214.816 182.32ZM222.58 182.32C223.03 181.81 223.34 181.385 223.51 181.045C223.69 180.705 223.78 180.34 223.78 179.95C223.78 179.55 223.62 179.215 223.3 178.945C222.99 178.665 222.525 178.525 221.905 178.525C221.565 178.525 221.235 178.57 220.915 178.66C220.455 178.8 220.135 178.945 219.955 179.095L219.475 178.165C220.195 177.695 221.03 177.46 221.98 177.46C222.93 177.46 223.665 177.7 224.185 178.18C224.715 178.66 224.98 179.26 224.98 179.98C224.98 180.85 224.505 181.835 223.555 182.935L220.915 185.92H225.07V187H219.28V186.055L222.58 182.32Z" fill="#A6A3A3"/>
<path d="M249.416 150V148.92H251.351L251.336 140.7H252.536V148.92H254.216V150H249.416ZM249.281 142.5L249.011 141.45L251.336 140.7V141.9L249.281 142.5ZM261.92 142.2C261.5 141.75 260.91 141.525 260.15 141.525C259.39 141.525 258.77 141.865 258.29 142.545C257.82 143.215 257.54 144.115 257.45 145.245C258.18 144.635 258.945 144.33 259.745 144.33C260.305 144.33 260.79 144.42 261.2 144.6C261.62 144.78 261.93 145.02 262.13 145.32C262.53 145.88 262.73 146.48 262.73 147.12C262.73 147.99 262.465 148.73 261.935 149.34C261.405 149.94 260.6 150.24 259.52 150.24C258.45 150.24 257.635 149.855 257.075 149.085C256.525 148.305 256.25 147.33 256.25 146.16C256.25 144.46 256.595 143.085 257.285 142.035C257.985 140.985 258.94 140.46 260.15 140.46C261.13 140.46 261.895 140.735 262.445 141.285L261.92 142.2ZM259.715 145.38C258.825 145.38 258.065 145.775 257.435 146.565C257.565 148.305 258.275 149.175 259.565 149.175C260.205 149.175 260.695 148.985 261.035 148.605C261.385 148.225 261.56 147.77 261.56 147.24C261.56 146.95 261.515 146.68 261.425 146.43C261.345 146.17 261.155 145.93 260.855 145.71C260.565 145.49 260.185 145.38 259.715 145.38Z" fill="#A6A3A3"/>
<path d="M251.816 182.32C252.266 181.81 252.576 181.385 252.746 181.045C252.926 180.705 253.016 180.34 253.016 179.95C253.016 179.55 252.856 179.215 252.536 178.945C252.226 178.665 251.761 178.525 251.141 178.525C250.801 178.525 250.471 178.57 250.151 178.66C249.691 178.8 249.371 178.945 249.191 179.095L248.711 178.165C249.431 177.695 250.266 177.46 251.216 177.46C252.166 177.46 252.901 177.7 253.421 178.18C253.951 178.66 254.216 179.26 254.216 179.98C254.216 180.85 253.741 181.835 252.791 182.935L250.151 185.92H254.306V187H248.516V186.055L251.816 182.32ZM256.685 185.695C257.175 186.015 257.815 186.175 258.605 186.175C259.405 186.175 260 186 260.39 185.65C260.78 185.3 260.975 184.895 260.975 184.435C260.975 183.965 260.815 183.575 260.495 183.265C260.175 182.955 259.685 182.8 259.025 182.8H257.6V181.765H258.14C259.47 181.765 260.305 181.36 260.645 180.55C260.725 180.36 260.765 180.17 260.765 179.98C260.765 179.56 260.605 179.215 260.285 178.945C259.975 178.665 259.51 178.525 258.89 178.525C258.55 178.525 258.22 178.57 257.9 178.66C257.44 178.8 257.12 178.945 256.94 179.095L256.46 178.165C257.18 177.695 258.015 177.46 258.965 177.46C259.915 177.46 260.64 177.7 261.14 178.18C261.65 178.66 261.905 179.275 261.905 180.025C261.905 180.935 261.5 181.63 260.69 182.11C261.64 182.54 262.115 183.29 262.115 184.36C262.115 185.15 261.815 185.83 261.215 186.4C260.625 186.96 259.795 187.24 258.725 187.24C257.665 187.24 256.82 187.025 256.19 186.595L256.685 185.695Z" fill="#A6A3A3"/>
<path d="M137.916 150V148.92H139.851L139.836 140.7H141.036V148.92H142.716V150H137.916ZM137.781 142.5L137.511 141.45L139.836 140.7V141.9L137.781 142.5ZM145.185 148.695C145.675 149.015 146.315 149.175 147.105 149.175C147.905 149.175 148.5 149 148.89 148.65C149.28 148.3 149.475 147.895 149.475 147.435C149.475 146.965 149.315 146.575 148.995 146.265C148.675 145.955 148.185 145.8 147.525 145.8H146.1V144.765H146.64C147.97 144.765 148.805 144.36 149.145 143.55C149.225 143.36 149.265 143.17 149.265 142.98C149.265 142.56 149.105 142.215 148.785 141.945C148.475 141.665 148.01 141.525 147.39 141.525C147.05 141.525 146.72 141.57 146.4 141.66C145.94 141.8 145.62 141.945 145.44 142.095L144.96 141.165C145.68 140.695 146.515 140.46 147.465 140.46C148.415 140.46 149.14 140.7 149.64 141.18C150.15 141.66 150.405 142.275 150.405 143.025C150.405 143.935 150 144.63 149.19 145.11C150.14 145.54 150.615 146.29 150.615 147.36C150.615 148.15 150.315 148.83 149.715 149.4C149.125 149.96 148.295 150.24 147.225 150.24C146.165 150.24 145.32 150.025 144.69 149.595L145.185 148.695Z" fill="#6D5E5E"/>
<path d="M140.316 182.32C140.766 181.81 141.076 181.385 141.246 181.045C141.426 180.705 141.516 180.34 141.516 179.95C141.516 179.55 141.356 179.215 141.036 178.945C140.726 178.665 140.261 178.525 139.641 178.525C139.301 178.525 138.971 178.57 138.651 178.66C138.191 178.8 137.871 178.945 137.691 179.095L137.211 178.165C137.931 177.695 138.766 177.46 139.716 177.46C140.666 177.46 141.401 177.7 141.921 178.18C142.451 178.66 142.716 179.26 142.716 179.98C142.716 180.85 142.241 181.835 141.291 182.935L138.651 185.92H142.806V187H137.016V186.055L140.316 182.32ZM145.29 185.89C144.72 184.98 144.435 183.8 144.435 182.35C144.435 180.9 144.72 179.725 145.29 178.825C145.86 177.915 146.72 177.46 147.87 177.46C149.02 177.46 149.885 177.915 150.465 178.825C151.045 179.735 151.335 180.91 151.335 182.35C151.335 183.79 151.045 184.965 150.465 185.875C149.885 186.785 149.02 187.24 147.87 187.24C146.72 187.24 145.86 186.79 145.29 185.89ZM146.16 179.62C145.79 180.32 145.605 181.23 145.605 182.35C145.605 183.47 145.79 184.385 146.16 185.095C146.54 185.795 147.11 186.145 147.87 186.145C148.63 186.145 149.2 185.79 149.58 185.08C149.97 184.37 150.165 183.46 150.165 182.35C150.165 181.24 149.97 180.33 149.58 179.62C149.2 178.91 148.63 178.555 147.87 178.555C147.11 178.555 146.54 178.91 146.16 179.62Z" fill="#A6A3A3"/>
<path d="M174.916 150V148.92H176.851L176.836 140.7H178.036V148.92H179.716V150H174.916ZM174.781 142.5L174.511 141.45L176.836 140.7V141.9L174.781 142.5ZM185.98 150V147.87H181.495V147.255L184.165 140.7H185.44L182.95 146.79H185.98V143.25H187.15V146.79H187.945V147.87H187.15V150H185.98Z" fill="#A6A3A3"/>
<path d="M177.316 182.32C177.766 181.81 178.076 181.385 178.246 181.045C178.426 180.705 178.516 180.34 178.516 179.95C178.516 179.55 178.356 179.215 178.036 178.945C177.726 178.665 177.261 178.525 176.641 178.525C176.301 178.525 175.971 178.57 175.651 178.66C175.191 178.8 174.871 178.945 174.691 179.095L174.211 178.165C174.931 177.695 175.766 177.46 176.716 177.46C177.666 177.46 178.401 177.7 178.921 178.18C179.451 178.66 179.716 179.26 179.716 179.98C179.716 180.85 179.241 181.835 178.291 182.935L175.651 185.92H179.806V187H174.016V186.055L177.316 182.32ZM182.68 187V185.92H184.615L184.6 177.7H185.8V185.92H187.48V187H182.68ZM182.545 179.5L182.275 178.45L184.6 177.7V178.9L182.545 179.5Z" fill="#A6A3A3"/>
<path d="M63.9163 150V148.92H65.8513L65.8363 140.7H67.0363V148.92H68.7163V150H63.9163ZM63.7813 142.5L63.5113 141.45L65.8363 140.7V141.9L63.7813 142.5ZM71.68 150V148.92H73.615L73.6 140.7H74.8V148.92H76.48V150H71.68ZM71.545 142.5L71.275 141.45L73.6 140.7V141.9L71.545 142.5Z" fill="#6D5E5E"/>
<path d="M63.9163 187V185.92H65.8513L65.8363 177.7H67.0363V185.92H68.7163V187H63.9163ZM63.7813 179.5L63.5113 178.45L65.8363 177.7V178.9L63.7813 179.5ZM70.645 184.555C70.645 183.415 71.195 182.585 72.295 182.065C71.425 181.575 70.99 180.9 70.99 180.04C70.99 179.3 71.24 178.685 71.74 178.195C72.24 177.705 72.955 177.46 73.885 177.46C74.815 177.46 75.53 177.705 76.03 178.195C76.53 178.675 76.78 179.315 76.78 180.115C76.78 180.915 76.355 181.575 75.505 182.095C76.585 182.575 77.125 183.395 77.125 184.555C77.125 185.285 76.835 185.915 76.255 186.445C75.685 186.975 74.895 187.24 73.885 187.24C72.875 187.24 72.08 186.975 71.5 186.445C70.93 185.915 70.645 185.285 70.645 184.555ZM71.785 184.555C71.785 185.005 71.97 185.39 72.34 185.71C72.71 186.02 73.225 186.175 73.885 186.175C74.545 186.175 75.06 186.02 75.43 185.71C75.8 185.39 75.985 184.99 75.985 184.51C75.985 184.02 75.815 183.635 75.475 183.355C75.135 183.075 74.59 182.84 73.84 182.65C73.61 182.6 73.425 182.55 73.285 182.5C72.285 183.03 71.785 183.715 71.785 184.555ZM72.58 178.96C72.28 179.24 72.13 179.59 72.13 180.01C72.13 180.43 72.295 180.77 72.625 181.03C72.955 181.29 73.535 181.525 74.365 181.735C75.215 181.285 75.64 180.695 75.64 179.965C75.64 179.555 75.49 179.215 75.19 178.945C74.89 178.665 74.455 178.525 73.885 178.525C73.325 178.525 72.89 178.67 72.58 178.96Z" fill="#A6A3A3"/>
<path d="M26.4163 150V148.92H28.3513L28.3363 140.7H29.5363V148.92H31.2163V150H26.4163ZM26.2813 142.5L26.0113 141.45L28.3363 140.7V141.9L26.2813 142.5ZM33.79 148.89C33.22 147.98 32.935 146.8 32.935 145.35C32.935 143.9 33.22 142.725 33.79 141.825C34.36 140.915 35.22 140.46 36.37 140.46C37.52 140.46 38.385 140.915 38.965 141.825C39.545 142.735 39.835 143.91 39.835 145.35C39.835 146.79 39.545 147.965 38.965 148.875C38.385 149.785 37.52 150.24 36.37 150.24C35.22 150.24 34.36 149.79 33.79 148.89ZM34.66 142.62C34.29 143.32 34.105 144.23 34.105 145.35C34.105 146.47 34.29 147.385 34.66 148.095C35.04 148.795 35.61 149.145 36.37 149.145C37.13 149.145 37.7 148.79 38.08 148.08C38.47 147.37 38.665 146.46 38.665 145.35C38.665 144.24 38.47 143.33 38.08 142.62C37.7 141.91 37.13 141.555 36.37 141.555C35.61 141.555 35.04 141.91 34.66 142.62Z" fill="#6D5E5E"/>
<path d="M26.4163 187V185.92H28.3513L28.3363 177.7H29.5363V185.92H31.2163V187H26.4163ZM26.2813 179.5L26.0113 178.45L28.3363 177.7V178.9L26.2813 179.5ZM39.49 177.7V178.315L35.86 187H34.555L38.02 178.78H33.37V177.7H39.49Z" fill="#A6A3A3"/>
<path d="M100.916 150V148.92H102.851L102.836 140.7H104.036V148.92H105.716V150H100.916ZM100.781 142.5L100.511 141.45L102.836 140.7V141.9L100.781 142.5ZM111.08 145.32C111.53 144.81 111.84 144.385 112.01 144.045C112.19 143.705 112.28 143.34 112.28 142.95C112.28 142.55 112.12 142.215 111.8 141.945C111.49 141.665 111.025 141.525 110.405 141.525C110.065 141.525 109.735 141.57 109.415 141.66C108.955 141.8 108.635 141.945 108.455 142.095L107.975 141.165C108.695 140.695 109.53 140.46 110.48 140.46C111.43 140.46 112.165 140.7 112.685 141.18C113.215 141.66 113.48 142.26 113.48 142.98C113.48 143.85 113.005 144.835 112.055 145.935L109.415 148.92H113.57V150H107.78V149.055L111.08 145.32Z" fill="#6D5E5E"/>
<path d="M100.916 187V185.92H102.851L102.836 177.7H104.036V185.92H105.716V187H100.916ZM100.781 179.5L100.511 178.45L102.836 177.7V178.9L100.781 179.5ZM110.27 186.175C110.93 186.175 111.495 185.87 111.965 185.26C112.445 184.64 112.73 183.745 112.82 182.575C112.06 183.175 111.25 183.475 110.39 183.475C109.86 183.475 109.4 183.38 109.01 183.19C108.62 183 108.32 182.755 108.11 182.455C107.73 181.895 107.54 181.28 107.54 180.61C107.54 179.74 107.81 179 108.35 178.39C108.89 177.77 109.68 177.46 110.72 177.46C111.33 177.46 111.855 177.585 112.295 177.835C112.745 178.075 113.09 178.41 113.33 178.84C113.79 179.65 114.02 180.65 114.02 181.84C114.02 183.59 113.66 184.93 112.94 185.86C112.22 186.78 111.31 187.24 110.21 187.24C109.12 187.24 108.25 186.965 107.6 186.415L108.215 185.5C108.685 185.95 109.37 186.175 110.27 186.175ZM110.39 182.425C110.8 182.425 111.225 182.33 111.665 182.14C112.105 181.94 112.49 181.64 112.82 181.24C112.76 180.44 112.56 179.79 112.22 179.29C111.89 178.78 111.395 178.525 110.735 178.525C110.075 178.525 109.57 178.73 109.22 179.14C108.88 179.54 108.71 180 108.71 180.52C108.71 181.03 108.84 181.475 109.1 181.855C109.36 182.235 109.79 182.425 110.39 182.425Z" fill="#A6A3A3"/>
<rect x="25" y="158" width="236" height="6" fill="#D6E7F8"/>
<rect x="26" y="196" width="237" height="4" fill="#D6E7F8"/>
<rect x="25" y="158" width="125" height="6" fill="#77AFE6"/>
<defs>
<filter id="filter0_d_1_48" x="0" y="0" width="285" height="242" filterUnits="userSpaceOnUse" color-interpolation-filters="sRGB">
<feFlood flood-opacity="0" result="BackgroundImageFix"/>
<feColorMatrix in="SourceAlpha" type="matrix" values="0 0 0 0 0 0 0 0 0 0 0 0 0 0 0 0 0 0 127 0" result="hardAlpha"/>
<feOffset dy="4"/>
<feGaussianBlur stdDeviation="2"/>
<feComposite in2="hardAlpha" operator="out"/>
<feColorMatrix type="matrix" values="0 0 0 0 0 0 0 0 0 0 0 0 0 0 0 0 0 0 0.25 0"/>
<feBlend mode="normal" in2="BackgroundImageFix" result="effect1_dropShadow_1_48"/>
<feBlend mode="normal" in="SourceGraphic" in2="effect1_dropShadow_1_48" result="shape"/>
</filter>
<filter id="filter1_d_1_48" x="0" y="0" width="285" height="242" filterUnits="userSpaceOnUse" color-interpolation-filters="sRGB">
<feFlood flood-opacity="0" result="BackgroundImageFix"/>
<feColorMatrix in="SourceAlpha" type="matrix" values="0 0 0 0 0 0 0 0 0 0 0 0 0 0 0 0 0 0 127 0" result="hardAlpha"/>
<feOffset dy="4"/>
<feGaussianBlur stdDeviation="2"/>
<feComposite in2="hardAlpha" operator="out"/>
<feColorMatrix type="matrix" values="0 0 0 0 0 0 0 0 0 0 0 0 0 0 0 0 0 0 0.25 0"/>
<feBlend mode="normal" in2="BackgroundImageFix" result="effect1_dropShadow_1_48"/>
<feBlend mode="normal" in="SourceGraphic" in2="effect1_dropShadow_1_48" result="shape"/>
</filter>
</defs>
</svg>
