<svg width="50" height="42" viewBox="0 0 50 42" fill="none" xmlns="http://www.w3.org/2000/svg">
<path d="M48.1234 12.5947H38.1382V1.60204C38.1382 1.2464 37.7904 0.955414 37.3654 0.955414H12.6342C12.2091 0.955414 11.8613 1.2464 11.8613 1.60204V12.5947H1.87612C1.41241 12.5947 1.04144 12.8857 1.04144 13.2413V41.0463H11.8613H14.9527H35.0468H38.1382H48.9581V13.2413C48.9581 12.8857 48.5871 12.5947 48.1234 12.5947Z" fill="#E2DEDE"/>
<path d="M14.6448 41.0463H11.4586V12.5947V1.60204C11.4586 1.2464 11.817 0.955414 12.2551 0.955414H37.7453C38.1834 0.955414 38.5419 1.2464 38.5419 1.60204V12.5947V41.0463H35.3556" fill="#CCCCCC"/>
<path d="M25.0002 3.81927C29.0252 3.81927 32.2919 6.59891 32.2919 10.0238C32.2919 13.4487 29.0252 16.2284 25.0002 16.2284C20.9752 16.2284 17.7086 13.4487 17.7086 10.0238C17.7086 6.59891 20.9752 3.81927 25.0002 3.81927Z" fill="#E2DEDE"/>
<path d="M29.6875 8.53125V11.1562H26.5625V13.7812H23.4375V11.1562H20.3125V8.53125H23.4375V5.90625H26.5625V8.53125H29.6875Z" fill="#E02B4F"/>
<path d="M45.8331 32.4554H41.6664V36.2736H45.8331V32.4554Z" fill="#02AF9E"/>
<path d="M45.8331 26.7277H41.6664V29.5914H45.8331V26.7277Z" fill="#02AF9E"/>
<path d="M45.8331 21H41.6664V23.8636H45.8331V21Z" fill="#02AF9E"/>
<path d="M45.8331 15.2723H41.6664V18.1359H45.8331V15.2723Z" fill="#02AF9E"/>
<path d="M38.5419 1.60204V41.0463H11.4586V39.1064H30.5762C33.6589 39.1064 36.1522 37.0825 36.1522 34.58V0.955414H37.7453C38.1834 0.955414 38.5419 1.2464 38.5419 1.60204Z" fill="#B3B3B3"/>
<path d="M35.4167 19.0916H31.25V21.9552H35.4167V19.0916Z" fill="#02AF9E"/>
<path d="M27.0831 19.0916H22.9164V21.9552H27.0831V19.0916Z" fill="#02AF9E"/>
<path d="M18.7502 19.0916H14.5836V21.9552H18.7502V19.0916Z" fill="#02AF9E"/>
<path d="M31.25 27.6807H25V36.2716H31.25V27.6807Z" fill="#02AF9E"/>
<path d="M31.25 28.6361V31.2678L26.3672 36.2725H25V35.0166L31.25 28.6361Z" fill="#0DCEBB"/>
<path d="M31.2502 32.4554V33.5607L28.2845 36.2736H27.0836L31.2502 32.4554Z" fill="#0DCEBB"/>
<path d="M25 27.6807H18.75V36.2716H25V27.6807Z" fill="#02AF9E"/>
<path d="M31.25 27.6807H25V29.5898H31.25V27.6807Z" fill="#059B89"/>
<path d="M18.75 27.6807H22.9167L21.5786 29.5898H18.75V27.6807Z" fill="#059B89"/>
<path d="M25.0002 27.6807V29.5898H23.9586L25.0002 27.6807Z" fill="#059B89"/>
<path d="M25 27.6807V27.9385L24.088 29.5898H21.875L22.9345 27.6807H25Z" fill="#02AF9E"/>
<path d="M23.9583 29.5916L18.75 34.3643V31.9864L21.3699 29.5916H23.9583Z" fill="#0DCEBB"/>
<path d="M25 28.6361V29.9111L19.2031 36.2725H18.75V35.5062L25 28.6361Z" fill="#0DCEBB"/>
<path d="M11.4581 12.4084V41.0448H1.04144V39.0923H6.24978C7.89412 39.0923 9.22597 37.9274 9.22597 36.489V12.4084H11.4581Z" fill="#D3BEBE"/>
<path d="M48.9581 12.4084V41.0448H38.5414V39.0923H43.7498C45.3941 39.0923 46.726 37.9274 46.726 36.489V12.4084H48.9581Z" fill="#D3BEBE"/>
<path d="M8.33311 32.4554H4.16644V36.2736H8.33311V32.4554Z" fill="#02AF9E"/>
<path d="M8.33311 26.7277H4.16644V29.5914H8.33311V26.7277Z" fill="#02AF9E"/>
<path d="M8.33311 21H4.16644V23.8636H8.33311V21Z" fill="#02AF9E"/>
<path d="M7.29144 21L4.36686 23.8636H4.16644V23.0275L6.24483 21H7.29144Z" fill="#0DCEBB"/>
<path d="M8.33311 21L4.75369 23.8636H4.16644L7.8484 21H8.33311Z" fill="#0DCEBB"/>
<path d="M26.0414 19.0916L23.1169 21.9552H22.9164V21.119L24.9948 19.0916H26.0414Z" fill="#0DCEBB"/>
<path d="M27.0831 19.0916L23.5037 21.9552H22.9164L26.5984 19.0916H27.0831Z" fill="#0DCEBB"/>
<path d="M7.29144 32.4554L4.36686 36.2736H4.16644V35.1587L6.24483 32.4554H7.29144Z" fill="#0DCEBB"/>
<path d="M8.33311 32.4554L4.75369 36.2736H4.16644L7.8484 32.4554H8.33311Z" fill="#0DCEBB"/>
<path d="M8.33311 15.2723H4.16644V18.1359H8.33311V15.2723Z" fill="#02AF9E"/>
<path d="M8.33311 15.2723L5.276 18.1359H4.16644L7.23907 15.2723H8.33311Z" fill="#0DCEBB"/>
<path d="M8.33333 15.2723V15.8031L6.63043 18.1359H6.25L8.33333 15.2723Z" fill="#0DCEBB"/>
<path d="M35.4167 19.0916L32.3596 21.9552H31.25L34.3226 19.0916H35.4167Z" fill="#0DCEBB"/>
<path d="M35.4164 19.0916V19.6223L32.8621 21.9552H32.2914L35.4164 19.0916Z" fill="#0DCEBB"/>
<path d="M18.7502 19.0916L15.6931 21.9552H14.5836L17.6562 19.0916H18.7502Z" fill="#0DCEBB"/>
<path d="M18.7498 19.0916V19.6223L17.0469 21.9552H16.6664L18.7498 19.0916Z" fill="#0DCEBB"/>
<path d="M8.33311 26.7277L5.276 29.5914H4.16644L7.23907 26.7277H8.33311Z" fill="#0DCEBB"/>
<path d="M8.33333 26.7277V27.2585L6.63043 29.5914H6.25L8.33333 26.7277Z" fill="#0DCEBB"/>
<path d="M44.7914 21L41.8669 23.8636H41.6664V23.0275L43.7448 21H44.7914Z" fill="#0DCEBB"/>
<path d="M45.8331 21L42.2537 23.8636H41.6664L45.3484 21H45.8331Z" fill="#0DCEBB"/>
<path d="M44.7914 32.4554L41.8669 36.2736H41.6664V35.1587L43.7448 32.4554H44.7914Z" fill="#0DCEBB"/>
<path d="M45.8331 32.4554L42.2537 36.2736H41.6664L45.3484 32.4554H45.8331Z" fill="#0DCEBB"/>
<path d="M45.8331 15.2723L42.776 18.1359H41.6664L44.7391 15.2723H45.8331Z" fill="#0DCEBB"/>
<path d="M45.8333 15.2723V15.8031L44.1304 18.1359H43.75L45.8333 15.2723Z" fill="#0DCEBB"/>
<path d="M45.8331 26.7277L42.776 29.5914H41.6664L44.7391 26.7277H45.8331Z" fill="#0DCEBB"/>
<path d="M45.8333 26.7277V27.2585L44.1304 29.5914H43.75L45.8333 26.7277Z" fill="#0DCEBB"/>
<path d="M32.2919 9.46898C32.2919 13.1993 28.8856 16.2268 24.6885 16.2268C21.5559 16.2268 18.8719 14.5441 17.7086 12.1383C19.0848 13.4088 21.0236 14.1995 23.1678 14.1995C27.3649 14.1995 30.7712 11.172 30.7712 7.44163C30.7712 6.49553 30.5507 5.58998 30.1477 4.77228C31.4783 5.98869 32.2919 7.64436 32.2919 9.46898Z" fill="#D3BEBE"/>
<path d="M33.3331 25.5352V26.967C33.3331 27.3608 32.9922 27.6829 32.5755 27.6829H31.0604H24.9998H18.9392H17.424C17.0074 27.6829 16.6664 27.3608 16.6664 26.967V25.5352C16.6664 25.1414 17.0074 24.8193 17.424 24.8193H32.5755C32.9922 24.8193 33.3331 25.1414 33.3331 25.5352Z" fill="#666666"/>
<path d="M33.3331 26.7277V27.205C33.3331 27.4675 32.9922 27.6823 32.5755 27.6823H17.424C17.0074 27.6823 16.6664 27.4675 16.6664 27.205V26.7277H33.3331Z" fill="#4D4D4D"/>
<path d="M33.3331 36.7496V38.1814H16.6664V36.7496C16.6664 36.4871 16.977 36.2723 17.3634 36.2723H18.9392H24.9998H31.0604H32.6361C33.0225 36.2723 33.3331 36.4871 33.3331 36.7496Z" fill="#666666"/>
<path d="M35.4169 38.8966V41.0444H14.5836V38.8966C14.5836 38.5029 14.9201 38.1807 15.3287 38.1807H16.1861H33.8143H34.6717C35.0804 38.1807 35.4169 38.5029 35.4169 38.8966Z" fill="#666666"/>
<path d="M35.4169 40.0916H14.5836V41.0461H35.4169V40.0916Z" fill="#4D4D4D"/>
<path d="M29.6875 8.53125V11.1562H26.5625V13.7812H23.4375V12.4688H24.2188C24.65 12.4688 25 12.1748 25 11.8125V10.5C25 10.1378 25.35 9.84375 25.7812 9.84375H27.3438C27.775 9.84375 28.125 9.54975 28.125 9.1875V8.53125H29.6875Z" fill="#C90030"/>
<path d="M24.6406 8.85737C24.3968 8.71234 24.4203 8.97615 24.2296 9.15859C24.0484 9.33315 23.6414 9.41978 23.8749 9.55825C24.3515 9.84175 25.1179 9.14087 24.6406 8.85737Z" fill="#F2668E"/>
<path d="M22.3214 11.5905V13.6359C22.3214 14.0123 22.7214 14.3177 23.2143 14.3177H26.7857C27.2786 14.3177 27.6786 14.0123 27.6786 13.6359V11.5905H30.3571C30.85 11.5905 31.25 11.285 31.25 10.9086V8.18137C31.25 7.805 30.85 7.49955 30.3571 7.49955H27.6786V5.4541C27.6786 5.07773 27.2786 4.77228 26.7857 4.77228H23.2143C22.7214 4.77228 22.3214 5.07773 22.3214 5.4541V7.49955H19.6429C19.15 7.49955 18.75 7.805 18.75 8.18137V10.9086C18.75 11.285 19.15 11.5905 19.6429 11.5905H22.3214ZM20.5357 8.86319H23.2143C23.7071 8.86319 24.1071 8.55773 24.1071 8.18137V6.13591H25.8929V8.18137C25.8929 8.55773 26.2929 8.86319 26.7857 8.86319H29.4643V10.2268H26.7857C26.2929 10.2268 25.8929 10.5323 25.8929 10.9086V12.9541H24.1071V10.9086C24.1071 10.5323 23.7071 10.2268 23.2143 10.2268H20.5357V8.86319Z" fill="#472B3C"/>
<path d="M24.9998 17.182C29.5945 17.182 33.3331 13.9702 33.3331 10.023C33.3331 6.07569 29.5945 2.86386 24.9998 2.86386C20.4051 2.86386 16.6664 6.07569 16.6664 10.023C16.6664 13.9702 20.4051 17.182 24.9998 17.182ZM24.9998 4.16551C28.7589 4.16551 31.818 6.79355 31.818 10.023C31.818 13.2524 28.7589 15.8804 24.9998 15.8804C21.2407 15.8804 18.1816 13.2524 18.1816 10.023C18.1816 6.79355 21.2407 4.16551 24.9998 4.16551Z" fill="#472B3C"/>
<path d="M0.78125 42H11.7188H38.2812H49.2188C49.65 42 50 41.706 50 41.3438V13.125C50 12.4012 49.2719 11.8125 48.3773 11.8125H39.0625V1.3125C39.0625 0.588656 38.3617 0 37.5 0H12.5C11.6383 0 10.9375 0.588656 10.9375 1.3125V11.8125H1.62266C0.728125 11.8125 0 12.4012 0 13.125V41.3438C0 41.706 0.35 42 0.78125 42ZM15.5695 39.375H34.375V40.6875H15.6062L15.5695 39.375ZM17.1227 36.75H32.8125V38.0625H17.1656L17.1227 36.75ZM17.1875 26.9062V25.5938H32.8125L32.8133 26.9062H17.1875ZM30.4688 28.2188V35.4375H25.7812V28.2188H30.4688ZM48.4375 13.125V40.6875H39.0625V13.125H48.4375ZM1.62266 13.125H10.9375V15.75C10.9375 16.1122 11.2875 16.4062 11.7188 16.4062C12.15 16.4062 12.5 16.1122 12.5 15.75V1.3125H37.5V40.6875H35.9375V39.375C35.9375 38.6512 35.2617 38.0625 34.4305 38.0625H34.375V36.75C34.375 36.0262 33.7031 35.4375 32.8773 35.4375H32.0312V28.2188H32.8125C33.6742 28.2188 34.375 27.6301 34.375 26.9062V25.5938C34.375 24.8699 33.6742 24.2812 32.8125 24.2812H17.1875C16.3258 24.2812 15.625 24.8699 15.625 25.5938V26.9062C15.625 27.6301 16.3258 28.2188 17.1875 28.2188H24.2188V35.4375H19.5312V29.5312C19.5312 29.169 19.1812 28.875 18.75 28.875C18.3188 28.875 17.9688 29.169 17.9688 29.5312V35.4375H17.1227C16.2969 35.4375 15.625 36.0262 15.625 36.75V38.0625H15.5695C14.7383 38.0625 14.0625 38.6512 14.0625 39.375V40.6875H12.5V18.375C12.5 18.0128 12.15 17.7188 11.7188 17.7188C11.2875 17.7188 10.9375 18.0128 10.9375 18.375V40.6875H1.56406L1.62266 13.125Z" fill="#472B3C"/>
<path d="M8.59375 14.3193H3.90625C3.475 14.3193 3.125 14.6247 3.125 15.0011V18.4102C3.125 18.7865 3.475 19.092 3.90625 19.092H8.59375C9.025 19.092 9.375 18.7865 9.375 18.4102V15.0011C9.375 14.6247 9.025 14.3193 8.59375 14.3193ZM7.8125 17.7284H4.6875V15.6829H7.8125V17.7284Z" fill="#472B3C"/>
<path d="M15.2346 22.9089H19.1408C19.5002 22.9089 19.7919 22.6034 19.7919 22.227V18.818C19.7919 18.4416 19.5002 18.1361 19.1408 18.1361H15.2346C14.8752 18.1361 14.5836 18.4416 14.5836 18.818V22.227C14.5836 22.6034 14.8752 22.9089 15.2346 22.9089ZM15.8856 19.4998H18.4898V21.5452H15.8856V19.4998Z" fill="#472B3C"/>
<path d="M27.3438 18.1361H22.6562C22.225 18.1361 21.875 18.4416 21.875 18.818V22.227C21.875 22.6034 22.225 22.9089 22.6562 22.9089H27.3438C27.775 22.9089 28.125 22.6034 28.125 22.227V18.818C28.125 18.4416 27.775 18.1361 27.3438 18.1361ZM26.5625 21.5452H23.4375V19.4998H26.5625V21.5452Z" fill="#472B3C"/>
<path d="M30.2086 18.818V22.227C30.2086 22.6034 30.5002 22.9089 30.8596 22.9089H34.7658C35.1252 22.9089 35.4169 22.6034 35.4169 22.227V18.818C35.4169 18.4416 35.1252 18.1361 34.7658 18.1361H30.8596C30.5002 18.1361 30.2086 18.4416 30.2086 18.818ZM31.5106 19.4998H34.1148V21.5452H31.5106V19.4998Z" fill="#472B3C"/>
<path d="M8.59375 21H3.90625C3.475 21 3.125 21.2444 3.125 21.5455V24.2727C3.125 24.5738 3.475 24.8182 3.90625 24.8182H8.59375C9.025 24.8182 9.375 24.5738 9.375 24.2727V21.5455C9.375 21.2444 9.025 21 8.59375 21ZM7.8125 23.7273H4.6875V22.0909H7.8125V23.7273Z" fill="#472B3C"/>
<path d="M8.59375 26.7277H3.90625C3.475 26.7277 3.125 26.9721 3.125 27.2732V30.0004C3.125 30.3015 3.475 30.5459 3.90625 30.5459H8.59375C9.025 30.5459 9.375 30.3015 9.375 30.0004V27.2732C9.375 26.9721 9.025 26.7277 8.59375 26.7277ZM7.8125 29.455H4.6875V27.8186H7.8125V29.455Z" fill="#472B3C"/>
<path d="M8.59375 32.4554H3.90625C3.475 32.4554 3.125 32.7609 3.125 33.1372V36.5463C3.125 36.9227 3.475 37.2281 3.90625 37.2281H8.59375C9.025 37.2281 9.375 36.9227 9.375 36.5463V33.1372C9.375 32.7609 9.025 32.4554 8.59375 32.4554ZM7.8125 35.8645H4.6875V33.8191H7.8125V35.8645Z" fill="#472B3C"/>
<path d="M41.4062 19.092H46.0938C46.525 19.092 46.875 18.7865 46.875 18.4102V15.0011C46.875 14.6247 46.525 14.3193 46.0938 14.3193H41.4062C40.975 14.3193 40.625 14.6247 40.625 15.0011V18.4102C40.625 18.7865 40.975 19.092 41.4062 19.092ZM42.1875 15.6829H45.3125V17.7284H42.1875V15.6829Z" fill="#472B3C"/>
<path d="M41.4062 24.8182H46.0938C46.525 24.8182 46.875 24.5738 46.875 24.2727V21.5455C46.875 21.2444 46.525 21 46.0938 21H41.4062C40.975 21 40.625 21.2444 40.625 21.5455V24.2727C40.625 24.5738 40.975 24.8182 41.4062 24.8182ZM42.1875 22.0909H45.3125V23.7273H42.1875V22.0909Z" fill="#472B3C"/>
<path d="M41.4062 30.5459H46.0938C46.525 30.5459 46.875 30.3015 46.875 30.0004V27.2732C46.875 26.9721 46.525 26.7277 46.0938 26.7277H41.4062C40.975 26.7277 40.625 26.9721 40.625 27.2732V30.0004C40.625 30.3015 40.975 30.5459 41.4062 30.5459ZM42.1875 27.8186H45.3125V29.455H42.1875V27.8186Z" fill="#472B3C"/>
<path d="M41.4062 37.2281H46.0938C46.525 37.2281 46.875 36.9227 46.875 36.5463V33.1372C46.875 32.7609 46.525 32.4554 46.0938 32.4554H41.4062C40.975 32.4554 40.625 32.7609 40.625 33.1372V36.5463C40.625 36.9227 40.975 37.2281 41.4062 37.2281ZM42.1875 33.8191H45.3125V35.8645H42.1875V33.8191Z" fill="#472B3C"/>
<path d="M48.1234 12.5947H38.1382V1.60204C38.1382 1.2464 37.7904 0.955414 37.3654 0.955414H12.6342C12.2091 0.955414 11.8613 1.2464 11.8613 1.60204V12.5947H1.87612C1.41241 12.5947 1.04144 12.8857 1.04144 13.2413V41.0463H11.8613H14.9527H35.0468H38.1382H48.9581V13.2413C48.9581 12.8857 48.5871 12.5947 48.1234 12.5947Z" fill="#E2DEDE"/>
<path d="M14.6448 41.0463H11.4586V12.5947V1.60204C11.4586 1.2464 11.817 0.955414 12.2551 0.955414H37.7453C38.1834 0.955414 38.5419 1.2464 38.5419 1.60204V12.5947V41.0463H35.3556" fill="#CCCCCC"/>
<path d="M25.0002 3.81927C29.0252 3.81927 32.2919 6.59891 32.2919 10.0238C32.2919 13.4487 29.0252 16.2284 25.0002 16.2284C20.9752 16.2284 17.7086 13.4487 17.7086 10.0238C17.7086 6.59891 20.9752 3.81927 25.0002 3.81927Z" fill="#E2DEDE"/>
<path d="M29.6875 8.53125V11.1562H26.5625V13.7812H23.4375V11.1562H20.3125V8.53125H23.4375V5.90625H26.5625V8.53125H29.6875Z" fill="#E02B4F"/>
<path d="M45.8331 32.4554H41.6664V36.2736H45.8331V32.4554Z" fill="#02AF9E"/>
<path d="M45.8331 26.7277H41.6664V29.5914H45.8331V26.7277Z" fill="#02AF9E"/>
<path d="M45.8331 21H41.6664V23.8636H45.8331V21Z" fill="#02AF9E"/>
<path d="M45.8331 15.2723H41.6664V18.1359H45.8331V15.2723Z" fill="#02AF9E"/>
<path d="M38.5419 1.60204V41.0463H11.4586V39.1064H30.5762C33.6589 39.1064 36.1522 37.0825 36.1522 34.58V0.955414H37.7453C38.1834 0.955414 38.5419 1.2464 38.5419 1.60204Z" fill="#B3B3B3"/>
<path d="M35.4167 19.0916H31.25V21.9552H35.4167V19.0916Z" fill="#02AF9E"/>
<path d="M27.0831 19.0916H22.9164V21.9552H27.0831V19.0916Z" fill="#02AF9E"/>
<path d="M18.7502 19.0916H14.5836V21.9552H18.7502V19.0916Z" fill="#02AF9E"/>
<path d="M31.25 27.6807H25V36.2716H31.25V27.6807Z" fill="#02AF9E"/>
<path d="M31.25 28.6361V31.2678L26.3672 36.2725H25V35.0166L31.25 28.6361Z" fill="#0DCEBB"/>
<path d="M31.2502 32.4554V33.5607L28.2845 36.2736H27.0836L31.2502 32.4554Z" fill="#0DCEBB"/>
<path d="M25 27.6807H18.75V36.2716H25V27.6807Z" fill="#02AF9E"/>
<path d="M31.25 27.6807H25V29.5898H31.25V27.6807Z" fill="#059B89"/>
<path d="M18.75 27.6807H22.9167L21.5786 29.5898H18.75V27.6807Z" fill="#059B89"/>
<path d="M25.0002 27.6807V29.5898H23.9586L25.0002 27.6807Z" fill="#059B89"/>
<path d="M25 27.6807V27.9385L24.088 29.5898H21.875L22.9345 27.6807H25Z" fill="#02AF9E"/>
<path d="M23.9583 29.5916L18.75 34.3643V31.9864L21.3699 29.5916H23.9583Z" fill="#0DCEBB"/>
<path d="M25 28.6361V29.9111L19.2031 36.2725H18.75V35.5062L25 28.6361Z" fill="#0DCEBB"/>
<path d="M11.4581 12.4084V41.0448H1.04144V39.0923H6.24978C7.89412 39.0923 9.22597 37.9274 9.22597 36.489V12.4084H11.4581Z" fill="#D3BEBE"/>
<path d="M48.9581 12.4084V41.0448H38.5414V39.0923H43.7498C45.3941 39.0923 46.726 37.9274 46.726 36.489V12.4084H48.9581Z" fill="#D3BEBE"/>
<path d="M8.33311 32.4554H4.16644V36.2736H8.33311V32.4554Z" fill="#02AF9E"/>
<path d="M8.33311 26.7277H4.16644V29.5914H8.33311V26.7277Z" fill="#02AF9E"/>
<path d="M8.33311 21H4.16644V23.8636H8.33311V21Z" fill="#02AF9E"/>
<path d="M7.29144 21L4.36686 23.8636H4.16644V23.0275L6.24483 21H7.29144Z" fill="#0DCEBB"/>
<path d="M8.33311 21L4.75369 23.8636H4.16644L7.8484 21H8.33311Z" fill="#0DCEBB"/>
<path d="M26.0414 19.0916L23.1169 21.9552H22.9164V21.119L24.9948 19.0916H26.0414Z" fill="#0DCEBB"/>
<path d="M27.0831 19.0916L23.5037 21.9552H22.9164L26.5984 19.0916H27.0831Z" fill="#0DCEBB"/>
<path d="M7.29144 32.4554L4.36686 36.2736H4.16644V35.1587L6.24483 32.4554H7.29144Z" fill="#0DCEBB"/>
<path d="M8.33311 32.4554L4.75369 36.2736H4.16644L7.8484 32.4554H8.33311Z" fill="#0DCEBB"/>
<path d="M8.33311 15.2723H4.16644V18.1359H8.33311V15.2723Z" fill="#02AF9E"/>
<path d="M8.33311 15.2723L5.276 18.1359H4.16644L7.23907 15.2723H8.33311Z" fill="#0DCEBB"/>
<path d="M8.33333 15.2723V15.8031L6.63043 18.1359H6.25L8.33333 15.2723Z" fill="#0DCEBB"/>
<path d="M35.4167 19.0916L32.3596 21.9552H31.25L34.3226 19.0916H35.4167Z" fill="#0DCEBB"/>
<path d="M35.4164 19.0916V19.6223L32.8621 21.9552H32.2914L35.4164 19.0916Z" fill="#0DCEBB"/>
<path d="M18.7502 19.0916L15.6931 21.9552H14.5836L17.6562 19.0916H18.7502Z" fill="#0DCEBB"/>
<path d="M18.7498 19.0916V19.6223L17.0469 21.9552H16.6664L18.7498 19.0916Z" fill="#0DCEBB"/>
<path d="M8.33311 26.7277L5.276 29.5914H4.16644L7.23907 26.7277H8.33311Z" fill="#0DCEBB"/>
<path d="M8.33333 26.7277V27.2585L6.63043 29.5914H6.25L8.33333 26.7277Z" fill="#0DCEBB"/>
<path d="M44.7914 21L41.8669 23.8636H41.6664V23.0275L43.7448 21H44.7914Z" fill="#0DCEBB"/>
<path d="M45.8331 21L42.2537 23.8636H41.6664L45.3484 21H45.8331Z" fill="#0DCEBB"/>
<path d="M44.7914 32.4554L41.8669 36.2736H41.6664V35.1587L43.7448 32.4554H44.7914Z" fill="#0DCEBB"/>
<path d="M45.8331 32.4554L42.2537 36.2736H41.6664L45.3484 32.4554H45.8331Z" fill="#0DCEBB"/>
<path d="M45.8331 15.2723L42.776 18.1359H41.6664L44.7391 15.2723H45.8331Z" fill="#0DCEBB"/>
<path d="M45.8333 15.2723V15.8031L44.1304 18.1359H43.75L45.8333 15.2723Z" fill="#0DCEBB"/>
<path d="M45.8331 26.7277L42.776 29.5914H41.6664L44.7391 26.7277H45.8331Z" fill="#0DCEBB"/>
<path d="M45.8333 26.7277V27.2585L44.1304 29.5914H43.75L45.8333 26.7277Z" fill="#0DCEBB"/>
<path d="M32.2919 9.46898C32.2919 13.1993 28.8856 16.2268 24.6885 16.2268C21.5559 16.2268 18.8719 14.5441 17.7086 12.1383C19.0848 13.4088 21.0236 14.1995 23.1678 14.1995C27.3649 14.1995 30.7712 11.172 30.7712 7.44163C30.7712 6.49553 30.5507 5.58998 30.1477 4.77228C31.4783 5.98869 32.2919 7.64436 32.2919 9.46898Z" fill="#D3BEBE"/>
<path d="M33.3331 25.5352V26.967C33.3331 27.3608 32.9922 27.6829 32.5755 27.6829H31.0604H24.9998H18.9392H17.424C17.0074 27.6829 16.6664 27.3608 16.6664 26.967V25.5352C16.6664 25.1414 17.0074 24.8193 17.424 24.8193H32.5755C32.9922 24.8193 33.3331 25.1414 33.3331 25.5352Z" fill="#666666"/>
<path d="M33.3331 26.7277V27.205C33.3331 27.4675 32.9922 27.6823 32.5755 27.6823H17.424C17.0074 27.6823 16.6664 27.4675 16.6664 27.205V26.7277H33.3331Z" fill="#4D4D4D"/>
<path d="M33.3331 36.7496V38.1814H16.6664V36.7496C16.6664 36.4871 16.977 36.2723 17.3634 36.2723H18.9392H24.9998H31.0604H32.6361C33.0225 36.2723 33.3331 36.4871 33.3331 36.7496Z" fill="#666666"/>
<path d="M35.4169 38.8966V41.0444H14.5836V38.8966C14.5836 38.5029 14.9201 38.1807 15.3287 38.1807H16.1861H33.8143H34.6717C35.0804 38.1807 35.4169 38.5029 35.4169 38.8966Z" fill="#666666"/>
<path d="M35.4169 40.0916H14.5836V41.0461H35.4169V40.0916Z" fill="#4D4D4D"/>
<path d="M29.6875 8.53125V11.1562H26.5625V13.7812H23.4375V12.4688H24.2188C24.65 12.4688 25 12.1748 25 11.8125V10.5C25 10.1378 25.35 9.84375 25.7812 9.84375H27.3438C27.775 9.84375 28.125 9.54975 28.125 9.1875V8.53125H29.6875Z" fill="#C90030"/>
<path d="M24.6406 8.85737C24.3968 8.71234 24.4203 8.97615 24.2296 9.15859C24.0484 9.33315 23.6414 9.41978 23.8749 9.55825C24.3515 9.84175 25.1179 9.14087 24.6406 8.85737Z" fill="#F2668E"/>
<path d="M22.3214 11.5905V13.6359C22.3214 14.0123 22.7214 14.3177 23.2143 14.3177H26.7857C27.2786 14.3177 27.6786 14.0123 27.6786 13.6359V11.5905H30.3571C30.85 11.5905 31.25 11.285 31.25 10.9086V8.18137C31.25 7.805 30.85 7.49955 30.3571 7.49955H27.6786V5.4541C27.6786 5.07773 27.2786 4.77228 26.7857 4.77228H23.2143C22.7214 4.77228 22.3214 5.07773 22.3214 5.4541V7.49955H19.6429C19.15 7.49955 18.75 7.805 18.75 8.18137V10.9086C18.75 11.285 19.15 11.5905 19.6429 11.5905H22.3214ZM20.5357 8.86319H23.2143C23.7071 8.86319 24.1071 8.55773 24.1071 8.18137V6.13591H25.8929V8.18137C25.8929 8.55773 26.2929 8.86319 26.7857 8.86319H29.4643V10.2268H26.7857C26.2929 10.2268 25.8929 10.5323 25.8929 10.9086V12.9541H24.1071V10.9086C24.1071 10.5323 23.7071 10.2268 23.2143 10.2268H20.5357V8.86319Z" fill="#472B3C"/>
<path d="M24.9998 17.182C29.5945 17.182 33.3331 13.9702 33.3331 10.023C33.3331 6.07569 29.5945 2.86386 24.9998 2.86386C20.4051 2.86386 16.6664 6.07569 16.6664 10.023C16.6664 13.9702 20.4051 17.182 24.9998 17.182ZM24.9998 4.16551C28.7589 4.16551 31.818 6.79355 31.818 10.023C31.818 13.2524 28.7589 15.8804 24.9998 15.8804C21.2407 15.8804 18.1816 13.2524 18.1816 10.023C18.1816 6.79355 21.2407 4.16551 24.9998 4.16551Z" fill="#472B3C"/>
<path d="M0.78125 42H11.7188H38.2812H49.2188C49.65 42 50 41.706 50 41.3438V13.125C50 12.4012 49.2719 11.8125 48.3773 11.8125H39.0625V1.3125C39.0625 0.588656 38.3617 0 37.5 0H12.5C11.6383 0 10.9375 0.588656 10.9375 1.3125V11.8125H1.62266C0.728125 11.8125 0 12.4012 0 13.125V41.3438C0 41.706 0.35 42 0.78125 42ZM15.5695 39.375H34.375V40.6875H15.6062L15.5695 39.375ZM17.1227 36.75H32.8125V38.0625H17.1656L17.1227 36.75ZM17.1875 26.9062V25.5938H32.8125L32.8133 26.9062H17.1875ZM30.4688 28.2188V35.4375H25.7812V28.2188H30.4688ZM48.4375 13.125V40.6875H39.0625V13.125H48.4375ZM1.62266 13.125H10.9375V15.75C10.9375 16.1122 11.2875 16.4062 11.7188 16.4062C12.15 16.4062 12.5 16.1122 12.5 15.75V1.3125H37.5V40.6875H35.9375V39.375C35.9375 38.6512 35.2617 38.0625 34.4305 38.0625H34.375V36.75C34.375 36.0262 33.7031 35.4375 32.8773 35.4375H32.0312V28.2188H32.8125C33.6742 28.2188 34.375 27.6301 34.375 26.9062V25.5938C34.375 24.8699 33.6742 24.2812 32.8125 24.2812H17.1875C16.3258 24.2812 15.625 24.8699 15.625 25.5938V26.9062C15.625 27.6301 16.3258 28.2188 17.1875 28.2188H24.2188V35.4375H19.5312V29.5312C19.5312 29.169 19.1812 28.875 18.75 28.875C18.3188 28.875 17.9688 29.169 17.9688 29.5312V35.4375H17.1227C16.2969 35.4375 15.625 36.0262 15.625 36.75V38.0625H15.5695C14.7383 38.0625 14.0625 38.6512 14.0625 39.375V40.6875H12.5V18.375C12.5 18.0128 12.15 17.7188 11.7188 17.7188C11.2875 17.7188 10.9375 18.0128 10.9375 18.375V40.6875H1.56406L1.62266 13.125Z" fill="#472B3C"/>
<path d="M8.59375 14.3193H3.90625C3.475 14.3193 3.125 14.6247 3.125 15.0011V18.4102C3.125 18.7865 3.475 19.092 3.90625 19.092H8.59375C9.025 19.092 9.375 18.7865 9.375 18.4102V15.0011C9.375 14.6247 9.025 14.3193 8.59375 14.3193ZM7.8125 17.7284H4.6875V15.6829H7.8125V17.7284Z" fill="#472B3C"/>
<path d="M15.2346 22.9089H19.1408C19.5002 22.9089 19.7919 22.6034 19.7919 22.227V18.818C19.7919 18.4416 19.5002 18.1361 19.1408 18.1361H15.2346C14.8752 18.1361 14.5836 18.4416 14.5836 18.818V22.227C14.5836 22.6034 14.8752 22.9089 15.2346 22.9089ZM15.8856 19.4998H18.4898V21.5452H15.8856V19.4998Z" fill="#472B3C"/>
<path d="M27.3438 18.1361H22.6562C22.225 18.1361 21.875 18.4416 21.875 18.818V22.227C21.875 22.6034 22.225 22.9089 22.6562 22.9089H27.3438C27.775 22.9089 28.125 22.6034 28.125 22.227V18.818C28.125 18.4416 27.775 18.1361 27.3438 18.1361ZM26.5625 21.5452H23.4375V19.4998H26.5625V21.5452Z" fill="#472B3C"/>
<path d="M30.2086 18.818V22.227C30.2086 22.6034 30.5002 22.9089 30.8596 22.9089H34.7658C35.1252 22.9089 35.4169 22.6034 35.4169 22.227V18.818C35.4169 18.4416 35.1252 18.1361 34.7658 18.1361H30.8596C30.5002 18.1361 30.2086 18.4416 30.2086 18.818ZM31.5106 19.4998H34.1148V21.5452H31.5106V19.4998Z" fill="#472B3C"/>
<path d="M8.59375 21H3.90625C3.475 21 3.125 21.2444 3.125 21.5455V24.2727C3.125 24.5738 3.475 24.8182 3.90625 24.8182H8.59375C9.025 24.8182 9.375 24.5738 9.375 24.2727V21.5455C9.375 21.2444 9.025 21 8.59375 21ZM7.8125 23.7273H4.6875V22.0909H7.8125V23.7273Z" fill="#472B3C"/>
<path d="M8.59375 26.7277H3.90625C3.475 26.7277 3.125 26.9721 3.125 27.2732V30.0004C3.125 30.3015 3.475 30.5459 3.90625 30.5459H8.59375C9.025 30.5459 9.375 30.3015 9.375 30.0004V27.2732C9.375 26.9721 9.025 26.7277 8.59375 26.7277ZM7.8125 29.455H4.6875V27.8186H7.8125V29.455Z" fill="#472B3C"/>
<path d="M8.59375 32.4554H3.90625C3.475 32.4554 3.125 32.7609 3.125 33.1372V36.5463C3.125 36.9227 3.475 37.2281 3.90625 37.2281H8.59375C9.025 37.2281 9.375 36.9227 9.375 36.5463V33.1372C9.375 32.7609 9.025 32.4554 8.59375 32.4554ZM7.8125 35.8645H4.6875V33.8191H7.8125V35.8645Z" fill="#472B3C"/>
<path d="M41.4062 19.092H46.0938C46.525 19.092 46.875 18.7865 46.875 18.4102V15.0011C46.875 14.6247 46.525 14.3193 46.0938 14.3193H41.4062C40.975 14.3193 40.625 14.6247 40.625 15.0011V18.4102C40.625 18.7865 40.975 19.092 41.4062 19.092ZM42.1875 15.6829H45.3125V17.7284H42.1875V15.6829Z" fill="#472B3C"/>
<path d="M41.4062 24.8182H46.0938C46.525 24.8182 46.875 24.5738 46.875 24.2727V21.5455C46.875 21.2444 46.525 21 46.0938 21H41.4062C40.975 21 40.625 21.2444 40.625 21.5455V24.2727C40.625 24.5738 40.975 24.8182 41.4062 24.8182ZM42.1875 22.0909H45.3125V23.7273H42.1875V22.0909Z" fill="#472B3C"/>
<path d="M41.4062 30.5459H46.0938C46.525 30.5459 46.875 30.3015 46.875 30.0004V27.2732C46.875 26.9721 46.525 26.7277 46.0938 26.7277H41.4062C40.975 26.7277 40.625 26.9721 40.625 27.2732V30.0004C40.625 30.3015 40.975 30.5459 41.4062 30.5459ZM42.1875 27.8186H45.3125V29.455H42.1875V27.8186Z" fill="#472B3C"/>
<path d="M41.4062 37.2281H46.0938C46.525 37.2281 46.875 36.9227 46.875 36.5463V33.1372C46.875 32.7609 46.525 32.4554 46.0938 32.4554H41.4062C40.975 32.4554 40.625 32.7609 40.625 33.1372V36.5463C40.625 36.9227 40.975 37.2281 41.4062 37.2281ZM42.1875 33.8191H45.3125V35.8645H42.1875V33.8191Z" fill="#472B3C"/>
<path d="M48.1234 12.5947H38.1382V1.60204C38.1382 1.2464 37.7904 0.955414 37.3654 0.955414H12.6342C12.2091 0.955414 11.8613 1.2464 11.8613 1.60204V12.5947H1.87612C1.41241 12.5947 1.04144 12.8857 1.04144 13.2413V41.0463H11.8613H14.9527H35.0468H38.1382H48.9581V13.2413C48.9581 12.8857 48.5871 12.5947 48.1234 12.5947Z" fill="#E2DEDE"/>
<path d="M14.6448 41.0463H11.4586V12.5947V1.60204C11.4586 1.2464 11.817 0.955414 12.2551 0.955414H37.7453C38.1834 0.955414 38.5419 1.2464 38.5419 1.60204V12.5947V41.0463H35.3556" fill="#CCCCCC"/>
<path d="M25.0002 3.81927C29.0252 3.81927 32.2919 6.59891 32.2919 10.0238C32.2919 13.4487 29.0252 16.2284 25.0002 16.2284C20.9752 16.2284 17.7086 13.4487 17.7086 10.0238C17.7086 6.59891 20.9752 3.81927 25.0002 3.81927Z" fill="#E2DEDE"/>
<path d="M29.6875 8.53125V11.1562H26.5625V13.7812H23.4375V11.1562H20.3125V8.53125H23.4375V5.90625H26.5625V8.53125H29.6875Z" fill="#E02B4F"/>
<path d="M45.8331 32.4554H41.6664V36.2736H45.8331V32.4554Z" fill="#02AF9E"/>
<path d="M45.8331 26.7277H41.6664V29.5914H45.8331V26.7277Z" fill="#02AF9E"/>
<path d="M45.8331 21H41.6664V23.8636H45.8331V21Z" fill="#02AF9E"/>
<path d="M45.8331 15.2723H41.6664V18.1359H45.8331V15.2723Z" fill="#02AF9E"/>
<path d="M38.5419 1.60204V41.0463H11.4586V39.1064H30.5762C33.6589 39.1064 36.1522 37.0825 36.1522 34.58V0.955414H37.7453C38.1834 0.955414 38.5419 1.2464 38.5419 1.60204Z" fill="#B3B3B3"/>
<path d="M35.4167 19.0916H31.25V21.9552H35.4167V19.0916Z" fill="#02AF9E"/>
<path d="M27.0831 19.0916H22.9164V21.9552H27.0831V19.0916Z" fill="#02AF9E"/>
<path d="M18.7502 19.0916H14.5836V21.9552H18.7502V19.0916Z" fill="#02AF9E"/>
<path d="M31.25 27.6807H25V36.2716H31.25V27.6807Z" fill="#02AF9E"/>
<path d="M31.25 28.6361V31.2678L26.3672 36.2725H25V35.0166L31.25 28.6361Z" fill="#0DCEBB"/>
<path d="M31.2502 32.4554V33.5607L28.2845 36.2736H27.0836L31.2502 32.4554Z" fill="#0DCEBB"/>
<path d="M25 27.6807H18.75V36.2716H25V27.6807Z" fill="#02AF9E"/>
<path d="M31.25 27.6807H25V29.5898H31.25V27.6807Z" fill="#059B89"/>
<path d="M18.75 27.6807H22.9167L21.5786 29.5898H18.75V27.6807Z" fill="#059B89"/>
<path d="M25.0002 27.6807V29.5898H23.9586L25.0002 27.6807Z" fill="#059B89"/>
<path d="M25 27.6807V27.9385L24.088 29.5898H21.875L22.9345 27.6807H25Z" fill="#02AF9E"/>
<path d="M23.9583 29.5916L18.75 34.3643V31.9864L21.3699 29.5916H23.9583Z" fill="#0DCEBB"/>
<path d="M25 28.6361V29.9111L19.2031 36.2725H18.75V35.5062L25 28.6361Z" fill="#0DCEBB"/>
<path d="M11.4581 12.4084V41.0448H1.04144V39.0923H6.24978C7.89412 39.0923 9.22597 37.9274 9.22597 36.489V12.4084H11.4581Z" fill="#D3BEBE"/>
<path d="M48.9581 12.4084V41.0448H38.5414V39.0923H43.7498C45.3941 39.0923 46.726 37.9274 46.726 36.489V12.4084H48.9581Z" fill="#D3BEBE"/>
<path d="M8.33311 32.4554H4.16644V36.2736H8.33311V32.4554Z" fill="#02AF9E"/>
<path d="M8.33311 26.7277H4.16644V29.5914H8.33311V26.7277Z" fill="#02AF9E"/>
<path d="M8.33311 21H4.16644V23.8636H8.33311V21Z" fill="#02AF9E"/>
<path d="M7.29144 21L4.36686 23.8636H4.16644V23.0275L6.24483 21H7.29144Z" fill="#0DCEBB"/>
<path d="M8.33311 21L4.75369 23.8636H4.16644L7.8484 21H8.33311Z" fill="#0DCEBB"/>
<path d="M26.0414 19.0916L23.1169 21.9552H22.9164V21.119L24.9948 19.0916H26.0414Z" fill="#0DCEBB"/>
<path d="M27.0831 19.0916L23.5037 21.9552H22.9164L26.5984 19.0916H27.0831Z" fill="#0DCEBB"/>
<path d="M7.29144 32.4554L4.36686 36.2736H4.16644V35.1587L6.24483 32.4554H7.29144Z" fill="#0DCEBB"/>
<path d="M8.33311 32.4554L4.75369 36.2736H4.16644L7.8484 32.4554H8.33311Z" fill="#0DCEBB"/>
<path d="M8.33311 15.2723H4.16644V18.1359H8.33311V15.2723Z" fill="#02AF9E"/>
<path d="M8.33311 15.2723L5.276 18.1359H4.16644L7.23907 15.2723H8.33311Z" fill="#0DCEBB"/>
<path d="M8.33333 15.2723V15.8031L6.63043 18.1359H6.25L8.33333 15.2723Z" fill="#0DCEBB"/>
<path d="M35.4167 19.0916L32.3596 21.9552H31.25L34.3226 19.0916H35.4167Z" fill="#0DCEBB"/>
<path d="M35.4164 19.0916V19.6223L32.8621 21.9552H32.2914L35.4164 19.0916Z" fill="#0DCEBB"/>
<path d="M18.7502 19.0916L15.6931 21.9552H14.5836L17.6562 19.0916H18.7502Z" fill="#0DCEBB"/>
<path d="M18.7498 19.0916V19.6223L17.0469 21.9552H16.6664L18.7498 19.0916Z" fill="#0DCEBB"/>
<path d="M8.33311 26.7277L5.276 29.5914H4.16644L7.23907 26.7277H8.33311Z" fill="#0DCEBB"/>
<path d="M8.33333 26.7277V27.2585L6.63043 29.5914H6.25L8.33333 26.7277Z" fill="#0DCEBB"/>
<path d="M44.7914 21L41.8669 23.8636H41.6664V23.0275L43.7448 21H44.7914Z" fill="#0DCEBB"/>
<path d="M45.8331 21L42.2537 23.8636H41.6664L45.3484 21H45.8331Z" fill="#0DCEBB"/>
<path d="M44.7914 32.4554L41.8669 36.2736H41.6664V35.1587L43.7448 32.4554H44.7914Z" fill="#0DCEBB"/>
<path d="M45.8331 32.4554L42.2537 36.2736H41.6664L45.3484 32.4554H45.8331Z" fill="#0DCEBB"/>
<path d="M45.8331 15.2723L42.776 18.1359H41.6664L44.7391 15.2723H45.8331Z" fill="#0DCEBB"/>
<path d="M45.8333 15.2723V15.8031L44.1304 18.1359H43.75L45.8333 15.2723Z" fill="#0DCEBB"/>
<path d="M45.8331 26.7277L42.776 29.5914H41.6664L44.7391 26.7277H45.8331Z" fill="#0DCEBB"/>
<path d="M45.8333 26.7277V27.2585L44.1304 29.5914H43.75L45.8333 26.7277Z" fill="#0DCEBB"/>
<path d="M32.2919 9.46898C32.2919 13.1993 28.8856 16.2268 24.6885 16.2268C21.5559 16.2268 18.8719 14.5441 17.7086 12.1383C19.0848 13.4088 21.0236 14.1995 23.1678 14.1995C27.3649 14.1995 30.7712 11.172 30.7712 7.44163C30.7712 6.49553 30.5507 5.58998 30.1477 4.77228C31.4783 5.98869 32.2919 7.64436 32.2919 9.46898Z" fill="#D3BEBE"/>
<path d="M33.3331 25.5352V26.967C33.3331 27.3608 32.9922 27.6829 32.5755 27.6829H31.0604H24.9998H18.9392H17.424C17.0074 27.6829 16.6664 27.3608 16.6664 26.967V25.5352C16.6664 25.1414 17.0074 24.8193 17.424 24.8193H32.5755C32.9922 24.8193 33.3331 25.1414 33.3331 25.5352Z" fill="#666666"/>
<path d="M33.3331 26.7277V27.205C33.3331 27.4675 32.9922 27.6823 32.5755 27.6823H17.424C17.0074 27.6823 16.6664 27.4675 16.6664 27.205V26.7277H33.3331Z" fill="#4D4D4D"/>
<path d="M33.3331 36.7496V38.1814H16.6664V36.7496C16.6664 36.4871 16.977 36.2723 17.3634 36.2723H18.9392H24.9998H31.0604H32.6361C33.0225 36.2723 33.3331 36.4871 33.3331 36.7496Z" fill="#666666"/>
<path d="M35.4169 38.8966V41.0444H14.5836V38.8966C14.5836 38.5029 14.9201 38.1807 15.3287 38.1807H16.1861H33.8143H34.6717C35.0804 38.1807 35.4169 38.5029 35.4169 38.8966Z" fill="#666666"/>
<path d="M35.4169 40.0916H14.5836V41.0461H35.4169V40.0916Z" fill="#4D4D4D"/>
<path d="M29.6875 8.53125V11.1562H26.5625V13.7812H23.4375V12.4688H24.2188C24.65 12.4688 25 12.1748 25 11.8125V10.5C25 10.1378 25.35 9.84375 25.7812 9.84375H27.3438C27.775 9.84375 28.125 9.54975 28.125 9.1875V8.53125H29.6875Z" fill="#C90030"/>
<path d="M24.6406 8.85737C24.3968 8.71234 24.4203 8.97615 24.2296 9.15859C24.0484 9.33315 23.6414 9.41978 23.8749 9.55825C24.3515 9.84175 25.1179 9.14087 24.6406 8.85737Z" fill="#F2668E"/>
<path d="M22.3214 11.5905V13.6359C22.3214 14.0123 22.7214 14.3177 23.2143 14.3177H26.7857C27.2786 14.3177 27.6786 14.0123 27.6786 13.6359V11.5905H30.3571C30.85 11.5905 31.25 11.285 31.25 10.9086V8.18137C31.25 7.805 30.85 7.49955 30.3571 7.49955H27.6786V5.4541C27.6786 5.07773 27.2786 4.77228 26.7857 4.77228H23.2143C22.7214 4.77228 22.3214 5.07773 22.3214 5.4541V7.49955H19.6429C19.15 7.49955 18.75 7.805 18.75 8.18137V10.9086C18.75 11.285 19.15 11.5905 19.6429 11.5905H22.3214ZM20.5357 8.86319H23.2143C23.7071 8.86319 24.1071 8.55773 24.1071 8.18137V6.13591H25.8929V8.18137C25.8929 8.55773 26.2929 8.86319 26.7857 8.86319H29.4643V10.2268H26.7857C26.2929 10.2268 25.8929 10.5323 25.8929 10.9086V12.9541H24.1071V10.9086C24.1071 10.5323 23.7071 10.2268 23.2143 10.2268H20.5357V8.86319Z" fill="#472B3C"/>
<path d="M24.9998 17.182C29.5945 17.182 33.3331 13.9702 33.3331 10.023C33.3331 6.07569 29.5945 2.86386 24.9998 2.86386C20.4051 2.86386 16.6664 6.07569 16.6664 10.023C16.6664 13.9702 20.4051 17.182 24.9998 17.182ZM24.9998 4.16551C28.7589 4.16551 31.818 6.79355 31.818 10.023C31.818 13.2524 28.7589 15.8804 24.9998 15.8804C21.2407 15.8804 18.1816 13.2524 18.1816 10.023C18.1816 6.79355 21.2407 4.16551 24.9998 4.16551Z" fill="#472B3C"/>
<path d="M0.78125 42H11.7188H38.2812H49.2188C49.65 42 50 41.706 50 41.3438V13.125C50 12.4012 49.2719 11.8125 48.3773 11.8125H39.0625V1.3125C39.0625 0.588656 38.3617 0 37.5 0H12.5C11.6383 0 10.9375 0.588656 10.9375 1.3125V11.8125H1.62266C0.728125 11.8125 0 12.4012 0 13.125V41.3438C0 41.706 0.35 42 0.78125 42ZM15.5695 39.375H34.375V40.6875H15.6062L15.5695 39.375ZM17.1227 36.75H32.8125V38.0625H17.1656L17.1227 36.75ZM17.1875 26.9062V25.5938H32.8125L32.8133 26.9062H17.1875ZM30.4688 28.2188V35.4375H25.7812V28.2188H30.4688ZM48.4375 13.125V40.6875H39.0625V13.125H48.4375ZM1.62266 13.125H10.9375V15.75C10.9375 16.1122 11.2875 16.4062 11.7188 16.4062C12.15 16.4062 12.5 16.1122 12.5 15.75V1.3125H37.5V40.6875H35.9375V39.375C35.9375 38.6512 35.2617 38.0625 34.4305 38.0625H34.375V36.75C34.375 36.0262 33.7031 35.4375 32.8773 35.4375H32.0312V28.2188H32.8125C33.6742 28.2188 34.375 27.6301 34.375 26.9062V25.5938C34.375 24.8699 33.6742 24.2812 32.8125 24.2812H17.1875C16.3258 24.2812 15.625 24.8699 15.625 25.5938V26.9062C15.625 27.6301 16.3258 28.2188 17.1875 28.2188H24.2188V35.4375H19.5312V29.5312C19.5312 29.169 19.1812 28.875 18.75 28.875C18.3188 28.875 17.9688 29.169 17.9688 29.5312V35.4375H17.1227C16.2969 35.4375 15.625 36.0262 15.625 36.75V38.0625H15.5695C14.7383 38.0625 14.0625 38.6512 14.0625 39.375V40.6875H12.5V18.375C12.5 18.0128 12.15 17.7188 11.7188 17.7188C11.2875 17.7188 10.9375 18.0128 10.9375 18.375V40.6875H1.56406L1.62266 13.125Z" fill="#472B3C"/>
<path d="M8.59375 14.3193H3.90625C3.475 14.3193 3.125 14.6247 3.125 15.0011V18.4102C3.125 18.7865 3.475 19.092 3.90625 19.092H8.59375C9.025 19.092 9.375 18.7865 9.375 18.4102V15.0011C9.375 14.6247 9.025 14.3193 8.59375 14.3193ZM7.8125 17.7284H4.6875V15.6829H7.8125V17.7284Z" fill="#472B3C"/>
<path d="M15.2346 22.9089H19.1408C19.5002 22.9089 19.7919 22.6034 19.7919 22.227V18.818C19.7919 18.4416 19.5002 18.1361 19.1408 18.1361H15.2346C14.8752 18.1361 14.5836 18.4416 14.5836 18.818V22.227C14.5836 22.6034 14.8752 22.9089 15.2346 22.9089ZM15.8856 19.4998H18.4898V21.5452H15.8856V19.4998Z" fill="#472B3C"/>
<path d="M27.3438 18.1361H22.6562C22.225 18.1361 21.875 18.4416 21.875 18.818V22.227C21.875 22.6034 22.225 22.9089 22.6562 22.9089H27.3438C27.775 22.9089 28.125 22.6034 28.125 22.227V18.818C28.125 18.4416 27.775 18.1361 27.3438 18.1361ZM26.5625 21.5452H23.4375V19.4998H26.5625V21.5452Z" fill="#472B3C"/>
<path d="M30.2086 18.818V22.227C30.2086 22.6034 30.5002 22.9089 30.8596 22.9089H34.7658C35.1252 22.9089 35.4169 22.6034 35.4169 22.227V18.818C35.4169 18.4416 35.1252 18.1361 34.7658 18.1361H30.8596C30.5002 18.1361 30.2086 18.4416 30.2086 18.818ZM31.5106 19.4998H34.1148V21.5452H31.5106V19.4998Z" fill="#472B3C"/>
<path d="M8.59375 21H3.90625C3.475 21 3.125 21.2444 3.125 21.5455V24.2727C3.125 24.5738 3.475 24.8182 3.90625 24.8182H8.59375C9.025 24.8182 9.375 24.5738 9.375 24.2727V21.5455C9.375 21.2444 9.025 21 8.59375 21ZM7.8125 23.7273H4.6875V22.0909H7.8125V23.7273Z" fill="#472B3C"/>
<path d="M8.59375 26.7277H3.90625C3.475 26.7277 3.125 26.9721 3.125 27.2732V30.0004C3.125 30.3015 3.475 30.5459 3.90625 30.5459H8.59375C9.025 30.5459 9.375 30.3015 9.375 30.0004V27.2732C9.375 26.9721 9.025 26.7277 8.59375 26.7277ZM7.8125 29.455H4.6875V27.8186H7.8125V29.455Z" fill="#472B3C"/>
<path d="M8.59375 32.4554H3.90625C3.475 32.4554 3.125 32.7609 3.125 33.1372V36.5463C3.125 36.9227 3.475 37.2281 3.90625 37.2281H8.59375C9.025 37.2281 9.375 36.9227 9.375 36.5463V33.1372C9.375 32.7609 9.025 32.4554 8.59375 32.4554ZM7.8125 35.8645H4.6875V33.8191H7.8125V35.8645Z" fill="#472B3C"/>
<path d="M41.4062 19.092H46.0938C46.525 19.092 46.875 18.7865 46.875 18.4102V15.0011C46.875 14.6247 46.525 14.3193 46.0938 14.3193H41.4062C40.975 14.3193 40.625 14.6247 40.625 15.0011V18.4102C40.625 18.7865 40.975 19.092 41.4062 19.092ZM42.1875 15.6829H45.3125V17.7284H42.1875V15.6829Z" fill="#472B3C"/>
<path d="M41.4062 24.8182H46.0938C46.525 24.8182 46.875 24.5738 46.875 24.2727V21.5455C46.875 21.2444 46.525 21 46.0938 21H41.4062C40.975 21 40.625 21.2444 40.625 21.5455V24.2727C40.625 24.5738 40.975 24.8182 41.4062 24.8182ZM42.1875 22.0909H45.3125V23.7273H42.1875V22.0909Z" fill="#472B3C"/>
<path d="M41.4062 30.5459H46.0938C46.525 30.5459 46.875 30.3015 46.875 30.0004V27.2732C46.875 26.9721 46.525 26.7277 46.0938 26.7277H41.4062C40.975 26.7277 40.625 26.9721 40.625 27.2732V30.0004C40.625 30.3015 40.975 30.5459 41.4062 30.5459ZM42.1875 27.8186H45.3125V29.455H42.1875V27.8186Z" fill="#472B3C"/>
<path d="M41.4062 37.2281H46.0938C46.525 37.2281 46.875 36.9227 46.875 36.5463V33.1372C46.875 32.7609 46.525 32.4554 46.0938 32.4554H41.4062C40.975 32.4554 40.625 32.7609 40.625 33.1372V36.5463C40.625 36.9227 40.975 37.2281 41.4062 37.2281ZM42.1875 33.8191H45.3125V35.8645H42.1875V33.8191Z" fill="#472B3C"/>
<path d="M48.1234 12.5947H38.1382V1.60204C38.1382 1.2464 37.7904 0.955414 37.3654 0.955414H12.6342C12.2091 0.955414 11.8613 1.2464 11.8613 1.60204V12.5947H1.87612C1.41241 12.5947 1.04144 12.8857 1.04144 13.2413V41.0463H11.8613H14.9527H35.0468H38.1382H48.9581V13.2413C48.9581 12.8857 48.5871 12.5947 48.1234 12.5947Z" fill="#E2DEDE"/>
<path d="M14.6448 41.0463H11.4586V12.5947V1.60204C11.4586 1.2464 11.817 0.955414 12.2551 0.955414H37.7453C38.1834 0.955414 38.5419 1.2464 38.5419 1.60204V12.5947V41.0463H35.3556" fill="#CCCCCC"/>
<path d="M25.0002 3.81927C29.0252 3.81927 32.2919 6.59891 32.2919 10.0238C32.2919 13.4487 29.0252 16.2284 25.0002 16.2284C20.9752 16.2284 17.7086 13.4487 17.7086 10.0238C17.7086 6.59891 20.9752 3.81927 25.0002 3.81927Z" fill="#E2DEDE"/>
<path d="M29.6875 8.53125V11.1562H26.5625V13.7812H23.4375V11.1562H20.3125V8.53125H23.4375V5.90625H26.5625V8.53125H29.6875Z" fill="#E02B4F"/>
<path d="M45.8331 32.4554H41.6664V36.2736H45.8331V32.4554Z" fill="#02AF9E"/>
<path d="M45.8331 26.7277H41.6664V29.5914H45.8331V26.7277Z" fill="#02AF9E"/>
<path d="M45.8331 21H41.6664V23.8636H45.8331V21Z" fill="#02AF9E"/>
<path d="M45.8331 15.2723H41.6664V18.1359H45.8331V15.2723Z" fill="#02AF9E"/>
<path d="M38.5419 1.60204V41.0463H11.4586V39.1064H30.5762C33.6589 39.1064 36.1522 37.0825 36.1522 34.58V0.955414H37.7453C38.1834 0.955414 38.5419 1.2464 38.5419 1.60204Z" fill="#B3B3B3"/>
<path d="M35.4167 19.0916H31.25V21.9552H35.4167V19.0916Z" fill="#02AF9E"/>
<path d="M27.0831 19.0916H22.9164V21.9552H27.0831V19.0916Z" fill="#02AF9E"/>
<path d="M18.7502 19.0916H14.5836V21.9552H18.7502V19.0916Z" fill="#02AF9E"/>
<path d="M31.25 27.6807H25V36.2716H31.25V27.6807Z" fill="#02AF9E"/>
<path d="M31.25 28.6361V31.2678L26.3672 36.2725H25V35.0166L31.25 28.6361Z" fill="#0DCEBB"/>
<path d="M31.2502 32.4554V33.5607L28.2845 36.2736H27.0836L31.2502 32.4554Z" fill="#0DCEBB"/>
<path d="M25 27.6807H18.75V36.2716H25V27.6807Z" fill="#02AF9E"/>
<path d="M31.25 27.6807H25V29.5898H31.25V27.6807Z" fill="#059B89"/>
<path d="M18.75 27.6807H22.9167L21.5786 29.5898H18.75V27.6807Z" fill="#059B89"/>
<path d="M25.0002 27.6807V29.5898H23.9586L25.0002 27.6807Z" fill="#059B89"/>
<path d="M25 27.6807V27.9385L24.088 29.5898H21.875L22.9345 27.6807H25Z" fill="#02AF9E"/>
<path d="M23.9583 29.5916L18.75 34.3643V31.9864L21.3699 29.5916H23.9583Z" fill="#0DCEBB"/>
<path d="M25 28.6361V29.9111L19.2031 36.2725H18.75V35.5062L25 28.6361Z" fill="#0DCEBB"/>
<path d="M11.4581 12.4084V41.0448H1.04144V39.0923H6.24978C7.89412 39.0923 9.22597 37.9274 9.22597 36.489V12.4084H11.4581Z" fill="#D3BEBE"/>
<path d="M48.9581 12.4084V41.0448H38.5414V39.0923H43.7498C45.3941 39.0923 46.726 37.9274 46.726 36.489V12.4084H48.9581Z" fill="#D3BEBE"/>
<path d="M8.33311 32.4554H4.16644V36.2736H8.33311V32.4554Z" fill="#02AF9E"/>
<path d="M8.33311 26.7277H4.16644V29.5914H8.33311V26.7277Z" fill="#02AF9E"/>
<path d="M8.33311 21H4.16644V23.8636H8.33311V21Z" fill="#02AF9E"/>
<path d="M7.29144 21L4.36686 23.8636H4.16644V23.0275L6.24483 21H7.29144Z" fill="#0DCEBB"/>
<path d="M8.33311 21L4.75369 23.8636H4.16644L7.8484 21H8.33311Z" fill="#0DCEBB"/>
<path d="M26.0414 19.0916L23.1169 21.9552H22.9164V21.119L24.9948 19.0916H26.0414Z" fill="#0DCEBB"/>
<path d="M27.0831 19.0916L23.5037 21.9552H22.9164L26.5984 19.0916H27.0831Z" fill="#0DCEBB"/>
<path d="M7.29144 32.4554L4.36686 36.2736H4.16644V35.1587L6.24483 32.4554H7.29144Z" fill="#0DCEBB"/>
<path d="M8.33311 32.4554L4.75369 36.2736H4.16644L7.8484 32.4554H8.33311Z" fill="#0DCEBB"/>
<path d="M8.33311 15.2723H4.16644V18.1359H8.33311V15.2723Z" fill="#02AF9E"/>
<path d="M8.33311 15.2723L5.276 18.1359H4.16644L7.23907 15.2723H8.33311Z" fill="#0DCEBB"/>
<path d="M8.33333 15.2723V15.8031L6.63043 18.1359H6.25L8.33333 15.2723Z" fill="#0DCEBB"/>
<path d="M35.4167 19.0916L32.3596 21.9552H31.25L34.3226 19.0916H35.4167Z" fill="#0DCEBB"/>
<path d="M35.4164 19.0916V19.6223L32.8621 21.9552H32.2914L35.4164 19.0916Z" fill="#0DCEBB"/>
<path d="M18.7502 19.0916L15.6931 21.9552H14.5836L17.6562 19.0916H18.7502Z" fill="#0DCEBB"/>
<path d="M18.7498 19.0916V19.6223L17.0469 21.9552H16.6664L18.7498 19.0916Z" fill="#0DCEBB"/>
<path d="M8.33311 26.7277L5.276 29.5914H4.16644L7.23907 26.7277H8.33311Z" fill="#0DCEBB"/>
<path d="M8.33333 26.7277V27.2585L6.63043 29.5914H6.25L8.33333 26.7277Z" fill="#0DCEBB"/>
<path d="M44.7914 21L41.8669 23.8636H41.6664V23.0275L43.7448 21H44.7914Z" fill="#0DCEBB"/>
<path d="M45.8331 21L42.2537 23.8636H41.6664L45.3484 21H45.8331Z" fill="#0DCEBB"/>
<path d="M44.7914 32.4554L41.8669 36.2736H41.6664V35.1587L43.7448 32.4554H44.7914Z" fill="#0DCEBB"/>
<path d="M45.8331 32.4554L42.2537 36.2736H41.6664L45.3484 32.4554H45.8331Z" fill="#0DCEBB"/>
<path d="M45.8331 15.2723L42.776 18.1359H41.6664L44.7391 15.2723H45.8331Z" fill="#0DCEBB"/>
<path d="M45.8333 15.2723V15.8031L44.1304 18.1359H43.75L45.8333 15.2723Z" fill="#0DCEBB"/>
<path d="M45.8331 26.7277L42.776 29.5914H41.6664L44.7391 26.7277H45.8331Z" fill="#0DCEBB"/>
<path d="M45.8333 26.7277V27.2585L44.1304 29.5914H43.75L45.8333 26.7277Z" fill="#0DCEBB"/>
<path d="M32.2919 9.46898C32.2919 13.1993 28.8856 16.2268 24.6885 16.2268C21.5559 16.2268 18.8719 14.5441 17.7086 12.1383C19.0848 13.4088 21.0236 14.1995 23.1678 14.1995C27.3649 14.1995 30.7712 11.172 30.7712 7.44163C30.7712 6.49553 30.5507 5.58998 30.1477 4.77228C31.4783 5.98869 32.2919 7.64436 32.2919 9.46898Z" fill="#D3BEBE"/>
<path d="M33.3331 25.5352V26.967C33.3331 27.3608 32.9922 27.6829 32.5755 27.6829H31.0604H24.9998H18.9392H17.424C17.0074 27.6829 16.6664 27.3608 16.6664 26.967V25.5352C16.6664 25.1414 17.0074 24.8193 17.424 24.8193H32.5755C32.9922 24.8193 33.3331 25.1414 33.3331 25.5352Z" fill="#666666"/>
<path d="M33.3331 26.7277V27.205C33.3331 27.4675 32.9922 27.6823 32.5755 27.6823H17.424C17.0074 27.6823 16.6664 27.4675 16.6664 27.205V26.7277H33.3331Z" fill="#4D4D4D"/>
<path d="M33.3331 36.7496V38.1814H16.6664V36.7496C16.6664 36.4871 16.977 36.2723 17.3634 36.2723H18.9392H24.9998H31.0604H32.6361C33.0225 36.2723 33.3331 36.4871 33.3331 36.7496Z" fill="#666666"/>
<path d="M35.4169 38.8966V41.0444H14.5836V38.8966C14.5836 38.5029 14.9201 38.1807 15.3287 38.1807H16.1861H33.8143H34.6717C35.0804 38.1807 35.4169 38.5029 35.4169 38.8966Z" fill="#666666"/>
<path d="M35.4169 40.0916H14.5836V41.0461H35.4169V40.0916Z" fill="#4D4D4D"/>
<path d="M29.6875 8.53125V11.1562H26.5625V13.7812H23.4375V12.4688H24.2188C24.65 12.4688 25 12.1748 25 11.8125V10.5C25 10.1378 25.35 9.84375 25.7812 9.84375H27.3438C27.775 9.84375 28.125 9.54975 28.125 9.1875V8.53125H29.6875Z" fill="#C90030"/>
<path d="M24.6406 8.85737C24.3968 8.71234 24.4203 8.97615 24.2296 9.15859C24.0484 9.33315 23.6414 9.41978 23.8749 9.55825C24.3515 9.84175 25.1179 9.14087 24.6406 8.85737Z" fill="#F2668E"/>
<path d="M22.3214 11.5905V13.6359C22.3214 14.0123 22.7214 14.3177 23.2143 14.3177H26.7857C27.2786 14.3177 27.6786 14.0123 27.6786 13.6359V11.5905H30.3571C30.85 11.5905 31.25 11.285 31.25 10.9086V8.18137C31.25 7.805 30.85 7.49955 30.3571 7.49955H27.6786V5.4541C27.6786 5.07773 27.2786 4.77228 26.7857 4.77228H23.2143C22.7214 4.77228 22.3214 5.07773 22.3214 5.4541V7.49955H19.6429C19.15 7.49955 18.75 7.805 18.75 8.18137V10.9086C18.75 11.285 19.15 11.5905 19.6429 11.5905H22.3214ZM20.5357 8.86319H23.2143C23.7071 8.86319 24.1071 8.55773 24.1071 8.18137V6.13591H25.8929V8.18137C25.8929 8.55773 26.2929 8.86319 26.7857 8.86319H29.4643V10.2268H26.7857C26.2929 10.2268 25.8929 10.5323 25.8929 10.9086V12.9541H24.1071V10.9086C24.1071 10.5323 23.7071 10.2268 23.2143 10.2268H20.5357V8.86319Z" fill="#472B3C"/>
<path d="M24.9998 17.182C29.5945 17.182 33.3331 13.9702 33.3331 10.023C33.3331 6.07569 29.5945 2.86386 24.9998 2.86386C20.4051 2.86386 16.6664 6.07569 16.6664 10.023C16.6664 13.9702 20.4051 17.182 24.9998 17.182ZM24.9998 4.16551C28.7589 4.16551 31.818 6.79355 31.818 10.023C31.818 13.2524 28.7589 15.8804 24.9998 15.8804C21.2407 15.8804 18.1816 13.2524 18.1816 10.023C18.1816 6.79355 21.2407 4.16551 24.9998 4.16551Z" fill="#472B3C"/>
<path d="M0.78125 42H11.7188H38.2812H49.2188C49.65 42 50 41.706 50 41.3438V13.125C50 12.4012 49.2719 11.8125 48.3773 11.8125H39.0625V1.3125C39.0625 0.588656 38.3617 0 37.5 0H12.5C11.6383 0 10.9375 0.588656 10.9375 1.3125V11.8125H1.62266C0.728125 11.8125 0 12.4012 0 13.125V41.3438C0 41.706 0.35 42 0.78125 42ZM15.5695 39.375H34.375V40.6875H15.6062L15.5695 39.375ZM17.1227 36.75H32.8125V38.0625H17.1656L17.1227 36.75ZM17.1875 26.9062V25.5938H32.8125L32.8133 26.9062H17.1875ZM30.4688 28.2188V35.4375H25.7812V28.2188H30.4688ZM48.4375 13.125V40.6875H39.0625V13.125H48.4375ZM1.62266 13.125H10.9375V15.75C10.9375 16.1122 11.2875 16.4062 11.7188 16.4062C12.15 16.4062 12.5 16.1122 12.5 15.75V1.3125H37.5V40.6875H35.9375V39.375C35.9375 38.6512 35.2617 38.0625 34.4305 38.0625H34.375V36.75C34.375 36.0262 33.7031 35.4375 32.8773 35.4375H32.0312V28.2188H32.8125C33.6742 28.2188 34.375 27.6301 34.375 26.9062V25.5938C34.375 24.8699 33.6742 24.2812 32.8125 24.2812H17.1875C16.3258 24.2812 15.625 24.8699 15.625 25.5938V26.9062C15.625 27.6301 16.3258 28.2188 17.1875 28.2188H24.2188V35.4375H19.5312V29.5312C19.5312 29.169 19.1812 28.875 18.75 28.875C18.3188 28.875 17.9688 29.169 17.9688 29.5312V35.4375H17.1227C16.2969 35.4375 15.625 36.0262 15.625 36.75V38.0625H15.5695C14.7383 38.0625 14.0625 38.6512 14.0625 39.375V40.6875H12.5V18.375C12.5 18.0128 12.15 17.7188 11.7188 17.7188C11.2875 17.7188 10.9375 18.0128 10.9375 18.375V40.6875H1.56406L1.62266 13.125Z" fill="#472B3C"/>
<path d="M8.59375 14.3193H3.90625C3.475 14.3193 3.125 14.6247 3.125 15.0011V18.4102C3.125 18.7865 3.475 19.092 3.90625 19.092H8.59375C9.025 19.092 9.375 18.7865 9.375 18.4102V15.0011C9.375 14.6247 9.025 14.3193 8.59375 14.3193ZM7.8125 17.7284H4.6875V15.6829H7.8125V17.7284Z" fill="#472B3C"/>
<path d="M15.2346 22.9089H19.1408C19.5002 22.9089 19.7919 22.6034 19.7919 22.227V18.818C19.7919 18.4416 19.5002 18.1361 19.1408 18.1361H15.2346C14.8752 18.1361 14.5836 18.4416 14.5836 18.818V22.227C14.5836 22.6034 14.8752 22.9089 15.2346 22.9089ZM15.8856 19.4998H18.4898V21.5452H15.8856V19.4998Z" fill="#472B3C"/>
<path d="M27.3438 18.1361H22.6562C22.225 18.1361 21.875 18.4416 21.875 18.818V22.227C21.875 22.6034 22.225 22.9089 22.6562 22.9089H27.3438C27.775 22.9089 28.125 22.6034 28.125 22.227V18.818C28.125 18.4416 27.775 18.1361 27.3438 18.1361ZM26.5625 21.5452H23.4375V19.4998H26.5625V21.5452Z" fill="#472B3C"/>
<path d="M30.2086 18.818V22.227C30.2086 22.6034 30.5002 22.9089 30.8596 22.9089H34.7658C35.1252 22.9089 35.4169 22.6034 35.4169 22.227V18.818C35.4169 18.4416 35.1252 18.1361 34.7658 18.1361H30.8596C30.5002 18.1361 30.2086 18.4416 30.2086 18.818ZM31.5106 19.4998H34.1148V21.5452H31.5106V19.4998Z" fill="#472B3C"/>
<path d="M8.59375 21H3.90625C3.475 21 3.125 21.2444 3.125 21.5455V24.2727C3.125 24.5738 3.475 24.8182 3.90625 24.8182H8.59375C9.025 24.8182 9.375 24.5738 9.375 24.2727V21.5455C9.375 21.2444 9.025 21 8.59375 21ZM7.8125 23.7273H4.6875V22.0909H7.8125V23.7273Z" fill="#472B3C"/>
<path d="M8.59375 26.7277H3.90625C3.475 26.7277 3.125 26.9721 3.125 27.2732V30.0004C3.125 30.3015 3.475 30.5459 3.90625 30.5459H8.59375C9.025 30.5459 9.375 30.3015 9.375 30.0004V27.2732C9.375 26.9721 9.025 26.7277 8.59375 26.7277ZM7.8125 29.455H4.6875V27.8186H7.8125V29.455Z" fill="#472B3C"/>
<path d="M8.59375 32.4554H3.90625C3.475 32.4554 3.125 32.7609 3.125 33.1372V36.5463C3.125 36.9227 3.475 37.2281 3.90625 37.2281H8.59375C9.025 37.2281 9.375 36.9227 9.375 36.5463V33.1372C9.375 32.7609 9.025 32.4554 8.59375 32.4554ZM7.8125 35.8645H4.6875V33.8191H7.8125V35.8645Z" fill="#472B3C"/>
<path d="M41.4062 19.092H46.0938C46.525 19.092 46.875 18.7865 46.875 18.4102V15.0011C46.875 14.6247 46.525 14.3193 46.0938 14.3193H41.4062C40.975 14.3193 40.625 14.6247 40.625 15.0011V18.4102C40.625 18.7865 40.975 19.092 41.4062 19.092ZM42.1875 15.6829H45.3125V17.7284H42.1875V15.6829Z" fill="#472B3C"/>
<path d="M41.4062 24.8182H46.0938C46.525 24.8182 46.875 24.5738 46.875 24.2727V21.5455C46.875 21.2444 46.525 21 46.0938 21H41.4062C40.975 21 40.625 21.2444 40.625 21.5455V24.2727C40.625 24.5738 40.975 24.8182 41.4062 24.8182ZM42.1875 22.0909H45.3125V23.7273H42.1875V22.0909Z" fill="#472B3C"/>
<path d="M41.4062 30.5459H46.0938C46.525 30.5459 46.875 30.3015 46.875 30.0004V27.2732C46.875 26.9721 46.525 26.7277 46.0938 26.7277H41.4062C40.975 26.7277 40.625 26.9721 40.625 27.2732V30.0004C40.625 30.3015 40.975 30.5459 41.4062 30.5459ZM42.1875 27.8186H45.3125V29.455H42.1875V27.8186Z" fill="#472B3C"/>
<path d="M41.4062 37.2281H46.0938C46.525 37.2281 46.875 36.9227 46.875 36.5463V33.1372C46.875 32.7609 46.525 32.4554 46.0938 32.4554H41.4062C40.975 32.4554 40.625 32.7609 40.625 33.1372V36.5463C40.625 36.9227 40.975 37.2281 41.4062 37.2281ZM42.1875 33.8191H45.3125V35.8645H42.1875V33.8191Z" fill="#472B3C"/>
<path d="M48.1234 12.5947H38.1382V1.60204C38.1382 1.2464 37.7904 0.955414 37.3654 0.955414H12.6342C12.2091 0.955414 11.8613 1.2464 11.8613 1.60204V12.5947H1.87612C1.41241 12.5947 1.04144 12.8857 1.04144 13.2413V41.0463H11.8613H14.9527H35.0468H38.1382H48.9581V13.2413C48.9581 12.8857 48.5871 12.5947 48.1234 12.5947Z" fill="#E2DEDE"/>
<path d="M14.6448 41.0463H11.4586V12.5947V1.60204C11.4586 1.2464 11.817 0.955414 12.2551 0.955414H37.7453C38.1834 0.955414 38.5419 1.2464 38.5419 1.60204V12.5947V41.0463H35.3556" fill="#CCCCCC"/>
<path d="M25.0002 3.81927C29.0252 3.81927 32.2919 6.59891 32.2919 10.0238C32.2919 13.4487 29.0252 16.2284 25.0002 16.2284C20.9752 16.2284 17.7086 13.4487 17.7086 10.0238C17.7086 6.59891 20.9752 3.81927 25.0002 3.81927Z" fill="#E2DEDE"/>
<path d="M29.6875 8.53125V11.1562H26.5625V13.7812H23.4375V11.1562H20.3125V8.53125H23.4375V5.90625H26.5625V8.53125H29.6875Z" fill="#E02B4F"/>
<path d="M45.8331 32.4554H41.6664V36.2736H45.8331V32.4554Z" fill="#02AF9E"/>
<path d="M45.8331 26.7277H41.6664V29.5914H45.8331V26.7277Z" fill="#02AF9E"/>
<path d="M45.8331 21H41.6664V23.8636H45.8331V21Z" fill="#02AF9E"/>
<path d="M45.8331 15.2723H41.6664V18.1359H45.8331V15.2723Z" fill="#02AF9E"/>
<path d="M38.5419 1.60204V41.0463H11.4586V39.1064H30.5762C33.6589 39.1064 36.1522 37.0825 36.1522 34.58V0.955414H37.7453C38.1834 0.955414 38.5419 1.2464 38.5419 1.60204Z" fill="#B3B3B3"/>
<path d="M35.4167 19.0916H31.25V21.9552H35.4167V19.0916Z" fill="#02AF9E"/>
<path d="M27.0831 19.0916H22.9164V21.9552H27.0831V19.0916Z" fill="#02AF9E"/>
<path d="M18.7502 19.0916H14.5836V21.9552H18.7502V19.0916Z" fill="#02AF9E"/>
<path d="M31.25 27.6807H25V36.2716H31.25V27.6807Z" fill="#02AF9E"/>
<path d="M31.25 28.6361V31.2678L26.3672 36.2725H25V35.0166L31.25 28.6361Z" fill="#0DCEBB"/>
<path d="M31.2502 32.4554V33.5607L28.2845 36.2736H27.0836L31.2502 32.4554Z" fill="#0DCEBB"/>
<path d="M25 27.6807H18.75V36.2716H25V27.6807Z" fill="#02AF9E"/>
<path d="M31.25 27.6807H25V29.5898H31.25V27.6807Z" fill="#059B89"/>
<path d="M18.75 27.6807H22.9167L21.5786 29.5898H18.75V27.6807Z" fill="#059B89"/>
<path d="M25.0002 27.6807V29.5898H23.9586L25.0002 27.6807Z" fill="#059B89"/>
<path d="M25 27.6807V27.9385L24.088 29.5898H21.875L22.9345 27.6807H25Z" fill="#02AF9E"/>
<path d="M23.9583 29.5916L18.75 34.3643V31.9864L21.3699 29.5916H23.9583Z" fill="#0DCEBB"/>
<path d="M25 28.6361V29.9111L19.2031 36.2725H18.75V35.5062L25 28.6361Z" fill="#0DCEBB"/>
<path d="M11.4581 12.4084V41.0448H1.04144V39.0923H6.24978C7.89412 39.0923 9.22597 37.9274 9.22597 36.489V12.4084H11.4581Z" fill="#D3BEBE"/>
<path d="M48.9581 12.4084V41.0448H38.5414V39.0923H43.7498C45.3941 39.0923 46.726 37.9274 46.726 36.489V12.4084H48.9581Z" fill="#D3BEBE"/>
<path d="M8.33311 32.4554H4.16644V36.2736H8.33311V32.4554Z" fill="#02AF9E"/>
<path d="M8.33311 26.7277H4.16644V29.5914H8.33311V26.7277Z" fill="#02AF9E"/>
<path d="M8.33311 21H4.16644V23.8636H8.33311V21Z" fill="#02AF9E"/>
<path d="M7.29144 21L4.36686 23.8636H4.16644V23.0275L6.24483 21H7.29144Z" fill="#0DCEBB"/>
<path d="M8.33311 21L4.75369 23.8636H4.16644L7.8484 21H8.33311Z" fill="#0DCEBB"/>
<path d="M26.0414 19.0916L23.1169 21.9552H22.9164V21.119L24.9948 19.0916H26.0414Z" fill="#0DCEBB"/>
<path d="M27.0831 19.0916L23.5037 21.9552H22.9164L26.5984 19.0916H27.0831Z" fill="#0DCEBB"/>
<path d="M7.29144 32.4554L4.36686 36.2736H4.16644V35.1587L6.24483 32.4554H7.29144Z" fill="#0DCEBB"/>
<path d="M8.33311 32.4554L4.75369 36.2736H4.16644L7.8484 32.4554H8.33311Z" fill="#0DCEBB"/>
<path d="M8.33311 15.2723H4.16644V18.1359H8.33311V15.2723Z" fill="#02AF9E"/>
<path d="M8.33311 15.2723L5.276 18.1359H4.16644L7.23907 15.2723H8.33311Z" fill="#0DCEBB"/>
<path d="M8.33333 15.2723V15.8031L6.63043 18.1359H6.25L8.33333 15.2723Z" fill="#0DCEBB"/>
<path d="M35.4167 19.0916L32.3596 21.9552H31.25L34.3226 19.0916H35.4167Z" fill="#0DCEBB"/>
<path d="M35.4164 19.0916V19.6223L32.8621 21.9552H32.2914L35.4164 19.0916Z" fill="#0DCEBB"/>
<path d="M18.7502 19.0916L15.6931 21.9552H14.5836L17.6562 19.0916H18.7502Z" fill="#0DCEBB"/>
<path d="M18.7498 19.0916V19.6223L17.0469 21.9552H16.6664L18.7498 19.0916Z" fill="#0DCEBB"/>
<path d="M8.33311 26.7277L5.276 29.5914H4.16644L7.23907 26.7277H8.33311Z" fill="#0DCEBB"/>
<path d="M8.33333 26.7277V27.2585L6.63043 29.5914H6.25L8.33333 26.7277Z" fill="#0DCEBB"/>
<path d="M44.7914 21L41.8669 23.8636H41.6664V23.0275L43.7448 21H44.7914Z" fill="#0DCEBB"/>
<path d="M45.8331 21L42.2537 23.8636H41.6664L45.3484 21H45.8331Z" fill="#0DCEBB"/>
<path d="M44.7914 32.4554L41.8669 36.2736H41.6664V35.1587L43.7448 32.4554H44.7914Z" fill="#0DCEBB"/>
<path d="M45.8331 32.4554L42.2537 36.2736H41.6664L45.3484 32.4554H45.8331Z" fill="#0DCEBB"/>
<path d="M45.8331 15.2723L42.776 18.1359H41.6664L44.7391 15.2723H45.8331Z" fill="#0DCEBB"/>
<path d="M45.8333 15.2723V15.8031L44.1304 18.1359H43.75L45.8333 15.2723Z" fill="#0DCEBB"/>
<path d="M45.8331 26.7277L42.776 29.5914H41.6664L44.7391 26.7277H45.8331Z" fill="#0DCEBB"/>
<path d="M45.8333 26.7277V27.2585L44.1304 29.5914H43.75L45.8333 26.7277Z" fill="#0DCEBB"/>
<path d="M32.2919 9.46898C32.2919 13.1993 28.8856 16.2268 24.6885 16.2268C21.5559 16.2268 18.8719 14.5441 17.7086 12.1383C19.0848 13.4088 21.0236 14.1995 23.1678 14.1995C27.3649 14.1995 30.7712 11.172 30.7712 7.44163C30.7712 6.49553 30.5507 5.58998 30.1477 4.77228C31.4783 5.98869 32.2919 7.64436 32.2919 9.46898Z" fill="#D3BEBE"/>
<path d="M33.3331 25.5352V26.967C33.3331 27.3608 32.9922 27.6829 32.5755 27.6829H31.0604H24.9998H18.9392H17.424C17.0074 27.6829 16.6664 27.3608 16.6664 26.967V25.5352C16.6664 25.1414 17.0074 24.8193 17.424 24.8193H32.5755C32.9922 24.8193 33.3331 25.1414 33.3331 25.5352Z" fill="#666666"/>
<path d="M33.3331 26.7277V27.205C33.3331 27.4675 32.9922 27.6823 32.5755 27.6823H17.424C17.0074 27.6823 16.6664 27.4675 16.6664 27.205V26.7277H33.3331Z" fill="#4D4D4D"/>
<path d="M33.3331 36.7496V38.1814H16.6664V36.7496C16.6664 36.4871 16.977 36.2723 17.3634 36.2723H18.9392H24.9998H31.0604H32.6361C33.0225 36.2723 33.3331 36.4871 33.3331 36.7496Z" fill="#666666"/>
<path d="M35.4169 38.8966V41.0444H14.5836V38.8966C14.5836 38.5029 14.9201 38.1807 15.3287 38.1807H16.1861H33.8143H34.6717C35.0804 38.1807 35.4169 38.5029 35.4169 38.8966Z" fill="#666666"/>
<path d="M35.4169 40.0916H14.5836V41.0461H35.4169V40.0916Z" fill="#4D4D4D"/>
<path d="M29.6875 8.53125V11.1562H26.5625V13.7812H23.4375V12.4688H24.2188C24.65 12.4688 25 12.1748 25 11.8125V10.5C25 10.1378 25.35 9.84375 25.7812 9.84375H27.3438C27.775 9.84375 28.125 9.54975 28.125 9.1875V8.53125H29.6875Z" fill="#C90030"/>
<path d="M24.6406 8.85737C24.3968 8.71234 24.4203 8.97615 24.2296 9.15859C24.0484 9.33315 23.6414 9.41978 23.8749 9.55825C24.3515 9.84175 25.1179 9.14087 24.6406 8.85737Z" fill="#F2668E"/>
<path d="M22.3214 11.5905V13.6359C22.3214 14.0123 22.7214 14.3177 23.2143 14.3177H26.7857C27.2786 14.3177 27.6786 14.0123 27.6786 13.6359V11.5905H30.3571C30.85 11.5905 31.25 11.285 31.25 10.9086V8.18137C31.25 7.805 30.85 7.49955 30.3571 7.49955H27.6786V5.4541C27.6786 5.07773 27.2786 4.77228 26.7857 4.77228H23.2143C22.7214 4.77228 22.3214 5.07773 22.3214 5.4541V7.49955H19.6429C19.15 7.49955 18.75 7.805 18.75 8.18137V10.9086C18.75 11.285 19.15 11.5905 19.6429 11.5905H22.3214ZM20.5357 8.86319H23.2143C23.7071 8.86319 24.1071 8.55773 24.1071 8.18137V6.13591H25.8929V8.18137C25.8929 8.55773 26.2929 8.86319 26.7857 8.86319H29.4643V10.2268H26.7857C26.2929 10.2268 25.8929 10.5323 25.8929 10.9086V12.9541H24.1071V10.9086C24.1071 10.5323 23.7071 10.2268 23.2143 10.2268H20.5357V8.86319Z" fill="#472B3C"/>
<path d="M24.9998 17.182C29.5945 17.182 33.3331 13.9702 33.3331 10.023C33.3331 6.07569 29.5945 2.86386 24.9998 2.86386C20.4051 2.86386 16.6664 6.07569 16.6664 10.023C16.6664 13.9702 20.4051 17.182 24.9998 17.182ZM24.9998 4.16551C28.7589 4.16551 31.818 6.79355 31.818 10.023C31.818 13.2524 28.7589 15.8804 24.9998 15.8804C21.2407 15.8804 18.1816 13.2524 18.1816 10.023C18.1816 6.79355 21.2407 4.16551 24.9998 4.16551Z" fill="#472B3C"/>
<path d="M0.78125 42H11.7188H38.2812H49.2188C49.65 42 50 41.706 50 41.3438V13.125C50 12.4012 49.2719 11.8125 48.3773 11.8125H39.0625V1.3125C39.0625 0.588656 38.3617 0 37.5 0H12.5C11.6383 0 10.9375 0.588656 10.9375 1.3125V11.8125H1.62266C0.728125 11.8125 0 12.4012 0 13.125V41.3438C0 41.706 0.35 42 0.78125 42ZM15.5695 39.375H34.375V40.6875H15.6062L15.5695 39.375ZM17.1227 36.75H32.8125V38.0625H17.1656L17.1227 36.75ZM17.1875 26.9062V25.5938H32.8125L32.8133 26.9062H17.1875ZM30.4688 28.2188V35.4375H25.7812V28.2188H30.4688ZM48.4375 13.125V40.6875H39.0625V13.125H48.4375ZM1.62266 13.125H10.9375V15.75C10.9375 16.1122 11.2875 16.4062 11.7188 16.4062C12.15 16.4062 12.5 16.1122 12.5 15.75V1.3125H37.5V40.6875H35.9375V39.375C35.9375 38.6512 35.2617 38.0625 34.4305 38.0625H34.375V36.75C34.375 36.0262 33.7031 35.4375 32.8773 35.4375H32.0312V28.2188H32.8125C33.6742 28.2188 34.375 27.6301 34.375 26.9062V25.5938C34.375 24.8699 33.6742 24.2812 32.8125 24.2812H17.1875C16.3258 24.2812 15.625 24.8699 15.625 25.5938V26.9062C15.625 27.6301 16.3258 28.2188 17.1875 28.2188H24.2188V35.4375H19.5312V29.5312C19.5312 29.169 19.1812 28.875 18.75 28.875C18.3188 28.875 17.9688 29.169 17.9688 29.5312V35.4375H17.1227C16.2969 35.4375 15.625 36.0262 15.625 36.75V38.0625H15.5695C14.7383 38.0625 14.0625 38.6512 14.0625 39.375V40.6875H12.5V18.375C12.5 18.0128 12.15 17.7188 11.7188 17.7188C11.2875 17.7188 10.9375 18.0128 10.9375 18.375V40.6875H1.56406L1.62266 13.125Z" fill="#472B3C"/>
<path d="M8.59375 14.3193H3.90625C3.475 14.3193 3.125 14.6247 3.125 15.0011V18.4102C3.125 18.7865 3.475 19.092 3.90625 19.092H8.59375C9.025 19.092 9.375 18.7865 9.375 18.4102V15.0011C9.375 14.6247 9.025 14.3193 8.59375 14.3193ZM7.8125 17.7284H4.6875V15.6829H7.8125V17.7284Z" fill="#472B3C"/>
<path d="M15.2346 22.9089H19.1408C19.5002 22.9089 19.7919 22.6034 19.7919 22.227V18.818C19.7919 18.4416 19.5002 18.1361 19.1408 18.1361H15.2346C14.8752 18.1361 14.5836 18.4416 14.5836 18.818V22.227C14.5836 22.6034 14.8752 22.9089 15.2346 22.9089ZM15.8856 19.4998H18.4898V21.5452H15.8856V19.4998Z" fill="#472B3C"/>
<path d="M27.3438 18.1361H22.6562C22.225 18.1361 21.875 18.4416 21.875 18.818V22.227C21.875 22.6034 22.225 22.9089 22.6562 22.9089H27.3438C27.775 22.9089 28.125 22.6034 28.125 22.227V18.818C28.125 18.4416 27.775 18.1361 27.3438 18.1361ZM26.5625 21.5452H23.4375V19.4998H26.5625V21.5452Z" fill="#472B3C"/>
<path d="M30.2086 18.818V22.227C30.2086 22.6034 30.5002 22.9089 30.8596 22.9089H34.7658C35.1252 22.9089 35.4169 22.6034 35.4169 22.227V18.818C35.4169 18.4416 35.1252 18.1361 34.7658 18.1361H30.8596C30.5002 18.1361 30.2086 18.4416 30.2086 18.818ZM31.5106 19.4998H34.1148V21.5452H31.5106V19.4998Z" fill="#472B3C"/>
<path d="M8.59375 21H3.90625C3.475 21 3.125 21.2444 3.125 21.5455V24.2727C3.125 24.5738 3.475 24.8182 3.90625 24.8182H8.59375C9.025 24.8182 9.375 24.5738 9.375 24.2727V21.5455C9.375 21.2444 9.025 21 8.59375 21ZM7.8125 23.7273H4.6875V22.0909H7.8125V23.7273Z" fill="#472B3C"/>
<path d="M8.59375 26.7277H3.90625C3.475 26.7277 3.125 26.9721 3.125 27.2732V30.0004C3.125 30.3015 3.475 30.5459 3.90625 30.5459H8.59375C9.025 30.5459 9.375 30.3015 9.375 30.0004V27.2732C9.375 26.9721 9.025 26.7277 8.59375 26.7277ZM7.8125 29.455H4.6875V27.8186H7.8125V29.455Z" fill="#472B3C"/>
<path d="M8.59375 32.4554H3.90625C3.475 32.4554 3.125 32.7609 3.125 33.1372V36.5463C3.125 36.9227 3.475 37.2281 3.90625 37.2281H8.59375C9.025 37.2281 9.375 36.9227 9.375 36.5463V33.1372C9.375 32.7609 9.025 32.4554 8.59375 32.4554ZM7.8125 35.8645H4.6875V33.8191H7.8125V35.8645Z" fill="#472B3C"/>
<path d="M41.4062 19.092H46.0938C46.525 19.092 46.875 18.7865 46.875 18.4102V15.0011C46.875 14.6247 46.525 14.3193 46.0938 14.3193H41.4062C40.975 14.3193 40.625 14.6247 40.625 15.0011V18.4102C40.625 18.7865 40.975 19.092 41.4062 19.092ZM42.1875 15.6829H45.3125V17.7284H42.1875V15.6829Z" fill="#472B3C"/>
<path d="M41.4062 24.8182H46.0938C46.525 24.8182 46.875 24.5738 46.875 24.2727V21.5455C46.875 21.2444 46.525 21 46.0938 21H41.4062C40.975 21 40.625 21.2444 40.625 21.5455V24.2727C40.625 24.5738 40.975 24.8182 41.4062 24.8182ZM42.1875 22.0909H45.3125V23.7273H42.1875V22.0909Z" fill="#472B3C"/>
<path d="M41.4062 30.5459H46.0938C46.525 30.5459 46.875 30.3015 46.875 30.0004V27.2732C46.875 26.9721 46.525 26.7277 46.0938 26.7277H41.4062C40.975 26.7277 40.625 26.9721 40.625 27.2732V30.0004C40.625 30.3015 40.975 30.5459 41.4062 30.5459ZM42.1875 27.8186H45.3125V29.455H42.1875V27.8186Z" fill="#472B3C"/>
<path d="M41.4062 37.2281H46.0938C46.525 37.2281 46.875 36.9227 46.875 36.5463V33.1372C46.875 32.7609 46.525 32.4554 46.0938 32.4554H41.4062C40.975 32.4554 40.625 32.7609 40.625 33.1372V36.5463C40.625 36.9227 40.975 37.2281 41.4062 37.2281ZM42.1875 33.8191H45.3125V35.8645H42.1875V33.8191Z" fill="#472B3C"/>
</svg>
