<svg width="333" height="90" viewBox="0 0 333 90" fill="none" xmlns="http://www.w3.org/2000/svg">
<path d="M87.5279 12.136H92.6959V15.774H87.5279V12.136ZM97.6939 0.542H102.012V32.026H97.6939V0.542ZM91.2679 1.018H95.5179V30.598H91.2679V1.018ZM82.0199 2.752C86.2019 2.752 88.8879 7.07 88.8879 14.176C88.8879 21.316 86.2019 25.634 82.0199 25.634C77.8719 25.634 75.2199 21.316 75.2199 14.176C75.2199 7.07 77.8719 2.752 82.0199 2.752ZM82.0199 7.002C80.3199 7.002 79.3339 9.382 79.3339 14.176C79.3339 19.004 80.3199 21.35 82.0199 21.35C83.7879 21.35 84.7739 19.004 84.7739 14.176C84.7739 9.382 83.7879 7.002 82.0199 7.002ZM106.259 24.58H134.751V28.286H106.259V24.58ZM109.251 2.582H113.739V7.682H127.169V2.582H131.657V19.378H109.251V2.582ZM113.739 11.184V15.808H127.169V11.184H113.739ZM159.195 0.507998H163.717V32.094H159.195V0.507998ZM139.203 21.078H141.991C147.567 21.078 152.021 20.874 157.019 20.024L157.461 23.662C152.361 24.58 147.737 24.75 141.991 24.75H139.203V21.078ZM139.169 3.194H154.027V15.366H143.793V22.438H139.203V11.796H149.403V6.798H139.169V3.194ZM178.402 4.078H182.652C182.652 13.054 180.476 20.398 171.16 25.838L168.644 22.71C176.362 18.222 178.402 12.68 178.402 4.86V4.078ZM170.412 4.078H179.796V7.682H170.412V4.078ZM178.47 11.252V14.618L169.358 15.57L168.814 11.762L178.47 11.252ZM180.068 12.442H186.528V16.012H180.068V12.442ZM191.594 0.542H195.912V32.026H191.594V0.542ZM184.998 1.222H189.214V30.632H184.998V1.222ZM208.693 2.718C213.385 2.718 216.819 7.07 216.819 13.938C216.819 20.874 213.385 25.226 208.693 25.226C203.967 25.226 200.567 20.874 200.567 13.938C200.567 7.07 203.967 2.718 208.693 2.718ZM208.693 6.832C206.415 6.832 204.885 9.314 204.885 13.938C204.885 18.63 206.415 21.146 208.693 21.146C211.005 21.146 212.501 18.63 212.501 13.938C212.501 9.314 211.005 6.832 208.693 6.832ZM221.987 0.507998H226.475V32.094H221.987V0.507998ZM215.493 11.864H223.891V15.502H215.493V11.864ZM231.575 25.736H257.783V27.944H231.575V25.736ZM243.287 19.528H245.943V26.664H243.287V19.528ZM234.743 4.712H254.551V13.48H237.463V19.272H234.839V11.336H251.927V6.856H234.743V4.712ZM234.839 18.152H255.223V20.328H234.839V18.152ZM21.188 60.216H25.252V89.848H21.188V60.216ZM17.636 71.512H22.532V74.936H17.636V71.512ZM14.692 60.664H18.692V88.504H14.692V60.664ZM0.612 63.256H12.324V82.456H0.612V63.256ZM8.356 66.584H4.58V79.128H8.356V66.584ZM37.5695 61.08C42.0815 61.08 45.4735 63.896 45.4735 67.864C45.4735 71.8 42.0815 74.616 37.5695 74.616C33.0575 74.616 29.6655 71.8 29.6655 67.864C29.6655 63.896 33.0575 61.08 37.5695 61.08ZM37.5695 64.536C35.3935 64.536 33.7615 65.752 33.7615 67.864C33.7615 69.976 35.3935 71.192 37.5695 71.192C39.7455 71.192 41.3455 69.976 41.3455 67.864C41.3455 65.752 39.7455 64.536 37.5695 64.536ZM49.5695 60.216H53.8575V75.032H49.5695V60.216ZM34.0815 76.248H53.8575V84.376H38.3055V87.96H34.1455V81.304H49.6335V79.544H34.0815V76.248ZM34.1455 86.232H54.5935V89.528H34.1455V86.232ZM85.2928 60.216H89.5488V81.88H85.2928V60.216ZM80.1728 68.824H85.9008V72.28H80.1728V68.824ZM75.9488 62.424H80.4288C80.4288 70.424 75.4688 76.28 66.8608 79L65.1008 75.608C71.9167 73.464 75.9488 69.368 75.9488 64.344V62.424ZM66.6368 62.424H78.6688V65.848H66.6368V62.424ZM70.1248 85.944H90.2848V89.336H70.1248V85.944ZM70.1248 79.736H74.4128V87.896H70.1248V79.736ZM113.258 60.216H117.514V77.368H113.258V60.216ZM116.33 67.128H121.45V70.616H116.33V67.128ZM104.778 62.136H109.354C109.354 70.104 104.426 75.64 95.6903 78.072L93.9622 74.68C101.098 72.728 104.778 68.856 104.778 64.28V62.136ZM95.3703 62.136H107.37V65.56H95.3703V62.136ZM107.914 77.752C113.898 77.752 117.834 80.088 117.834 83.8C117.834 87.544 113.898 89.88 107.914 89.88C101.93 89.88 97.9303 87.544 97.9303 83.8C97.9303 80.088 101.93 77.752 107.914 77.752ZM107.914 81.048C104.298 81.048 102.154 82.008 102.154 83.8C102.154 85.624 104.298 86.584 107.914 86.584C111.53 86.584 113.674 85.624 113.674 83.8C113.674 82.008 111.53 81.048 107.914 81.048ZM124.936 62.36H137.608V65.784H124.936V62.36ZM128.584 69.272H132.808V76.696H128.584V69.272ZM135.944 62.36H140.136V64.216C140.136 66.296 140.136 69.24 139.432 72.92L135.304 72.472C135.944 68.824 135.944 66.264 135.944 64.216V62.36ZM143.016 60.216H147.304V82.392H143.016V60.216ZM145.608 69.24H150.824V72.728H145.608V69.24ZM127.528 85.944H148.232V89.336H127.528V85.944ZM127.528 80.408H131.784V87H127.528V80.408ZM123.592 78.424L123.208 75.064C128.328 75.064 135.464 74.968 141.416 74.136L141.672 77.144C135.56 78.296 128.68 78.424 123.592 78.424ZM173.477 60.184H177.733V89.912H173.477V60.184ZM154.661 79.544H157.285C162.533 79.544 166.725 79.352 171.429 78.552L171.845 81.976C167.045 82.84 162.693 83 157.285 83H154.661V79.544ZM154.629 62.712H168.613V74.168H158.981V80.824H154.661V70.808H164.261V66.104H154.629V62.712ZM196.529 63.064H198.705V68.248C198.705 74.904 195.121 81.08 190.385 83.48L188.753 81.304C193.041 79.256 196.529 73.72 196.529 68.248V63.064ZM196.977 63.064H199.153V68.248C199.153 73.528 202.609 78.84 206.897 80.824L205.297 82.936C200.593 80.632 196.977 74.68 196.977 68.248V63.064ZM209.905 60.536H212.561V89.528H209.905V60.536ZM225.454 63.544H227.63V65.88C227.63 71.192 224.43 75.608 219.598 77.336L218.19 75.256C222.574 73.72 225.454 70.008 225.454 65.88V63.544ZM225.934 63.544H228.11V65.848C228.11 69.688 230.894 73.24 235.15 74.68L233.774 76.76C229.006 75.096 225.934 70.84 225.934 65.848V63.544ZM219.022 62.584H234.478V64.76H219.022V62.584ZM238.126 60.568H240.782V77.976H238.126V60.568ZM240.046 68.184H245.07V70.392H240.046V68.184ZM221.998 79.512H240.782V89.496H238.126V81.72H221.998V79.512ZM267.372 60.568H270.028V89.496H267.372V60.568ZM269.388 72.44H274.764V74.68H269.388V72.44ZM247.628 65.176H264.684V67.352H247.628V65.176ZM256.268 69.752C260.364 69.752 263.308 72.504 263.308 76.408C263.308 80.312 260.364 83.064 256.268 83.064C252.204 83.064 249.228 80.312 249.228 76.408C249.228 72.504 252.204 69.752 256.268 69.752ZM256.268 71.96C253.644 71.96 251.756 73.784 251.756 76.408C251.756 79 253.644 80.856 256.268 80.856C258.892 80.856 260.78 79 260.78 76.408C260.78 73.784 258.892 71.96 256.268 71.96ZM254.892 60.92H257.548V66.168H254.892V60.92ZM288.617 70.904H294.153V73.112H288.617V70.904ZM283.209 63.288H285.289V68.792C285.289 74.84 282.761 80.696 278.537 83.288L276.873 81.272C280.841 78.936 283.209 73.752 283.209 68.792V63.288ZM283.721 63.288H285.769V68.696C285.769 73.336 287.945 78.264 291.753 80.568L290.217 82.648C286.057 80.088 283.721 74.328 283.721 68.696V63.288ZM299.241 60.568H301.801V89.496H299.241V60.568ZM293.385 61.176H295.881V88.056H293.385V61.176ZM313.062 75.448H315.687V84.12H313.062V75.448ZM323.751 75.448H326.407V84.12H323.751V75.448ZM306.663 83.608H332.871V85.816H306.663V83.608ZM319.719 62.392C325.831 62.392 330.215 65.304 330.215 69.848C330.215 74.36 325.831 77.272 319.719 77.272C313.575 77.272 309.191 74.36 309.191 69.848C309.191 65.304 313.575 62.392 319.719 62.392ZM319.719 64.504C315.079 64.504 311.751 66.616 311.751 69.848C311.751 73.048 315.079 75.16 319.719 75.16C324.359 75.16 327.655 73.048 327.655 69.848C327.655 66.616 324.359 64.504 319.719 64.504Z" fill="black"/>
</svg>
